<svg width="41" height="40" viewBox="0 0 41 40" fill="none" xmlns="http://www.w3.org/2000/svg">
<path d="M25.6096 8.33336C29.7596 6.31208 33.4088 5.3434 33.4088 5.3434C33.4088 5.3434 38.2553 23.2638 29.9928 29.8351C28.5155 31.0101 26.9793 31.774 25.467 32.1743M21.272 33.3333C21.8268 34.5665 23.0171 35.663 24.843 36.3105C30.2998 38.2453 37.5755 31.6666 37.5755 31.6666C37.5755 31.6666 35.0866 29.4163 31.9286 27.935M10.0755 27.8488C6.82945 29.3271 4.24213 31.6666 4.24213 31.6666C4.24213 31.6666 11.5178 38.2453 16.9746 36.3105C18.7833 35.6691 19.9683 34.5871 20.5296 33.3681M16.2078 8.33331C12.0578 6.31206 8.40878 5.3434 8.40878 5.3434C8.40878 5.3434 3.56223 23.2638 11.8247 29.8351C13.3051 31.0126 14.8445 31.7771 16.3598 32.1768M20.9088 3.33331C20.9088 3.33331 7.75138 16.4296 11.6212 26.2518C15.3412 35.6938 26.4763 35.6938 30.1965 26.2518C34.0663 16.4296 20.9088 3.33331 20.9088 3.33331Z" stroke="#10292A" stroke-width="1.5" stroke-linecap="round" stroke-linejoin="round"/>
</svg>
