<svg width="173" height="22" viewBox="0 0 173 22" fill="none" xmlns="http://www.w3.org/2000/svg">
<g clip-path="url(#clip0_444_651)">
<g clip-path="url(#clip1_444_651)">
<path d="M31.22 11.0102L30.3541 10.1319C29.2474 9.00937 27.9796 8.18618 26.594 7.67688C27.588 6.09181 28.2472 4.09306 28.5851 1.67024L28.8135 0.0332031L27.186 0.261869C21.286 1.09234 17.9113 3.87583 16.9286 8.74537C16.8697 8.77863 16.8108 8.81189 16.7519 8.84723C15.7 9.46463 14.7112 10.2909 13.5932 11.005C13.5963 11.0071 13.5983 11.0081 13.6014 11.0102C13.5911 11.0164 13.5818 11.0227 13.5715 11.0279C13.4485 11.1037 13.3255 11.1765 13.2036 11.2451C13.1726 11.2638 13.1406 11.2825 13.1085 11.3002C12.6477 11.56 12.1951 11.7804 11.7498 11.9592C11.7487 11.9592 11.7487 11.9592 11.7487 11.9592C11.4976 12.061 11.2476 12.1494 11.0006 12.2252C10.9562 12.2398 10.9118 12.2523 10.8663 12.2647C10.0014 12.5152 9.16138 12.6098 8.33682 12.5495C7.78711 12.509 7.2436 12.3988 6.70526 12.22C5.92616 11.9612 5.15637 11.558 4.3876 11.0102C5.18116 10.4448 5.97576 10.0332 6.78069 9.77644C7.3676 9.58831 7.95864 9.48229 8.55898 9.45839C9.522 9.41993 10.5078 9.59247 11.5286 9.976C11.9015 10.1157 12.3213 10.1004 12.6553 9.88371C13.2835 9.47627 13.8717 9.03631 14.4549 8.62168C14.4435 8.6144 14.4311 8.60713 14.4198 8.60089C13.0589 3.31144 9.71006 0.579922 4.23777 0.271223L2.85317 0.193269L2.93067 1.58605C3.07223 4.11489 3.72113 6.19263 4.89081 7.83278C3.77073 8.35248 2.66925 9.10188 1.58119 10.0799L0.546875 11.0102L1.58119 11.9405C2.69921 12.9466 3.83376 13.7095 4.98484 14.2323C3.96189 15.8298 3.28405 17.8567 2.941 20.3221L2.71264 21.9602L4.34007 21.7305C10.2091 20.9052 13.5787 18.1477 14.581 13.326C14.8775 13.1513 15.1761 12.9642 15.4758 12.7647C15.4861 12.7585 15.4965 12.7512 15.5058 12.7439C16.2911 12.192 17.0454 11.5694 17.9877 11.0133C17.9867 11.0133 17.9846 11.0123 17.9836 11.0112H17.9826C17.9815 11.0112 17.9815 11.0102 17.9805 11.0102C18.0001 10.9988 18.0197 10.9873 18.0394 10.9769C18.6563 10.6194 19.3155 10.3169 19.9995 10.0851C20.9687 9.75461 21.9876 9.56441 23.0105 9.56025H23.0116C23.6233 9.55609 24.235 9.61949 24.8384 9.75773H24.8394C25.788 9.976 26.7128 10.3803 27.5766 11.0102C26.7056 11.6463 25.7715 12.0527 24.8136 12.2689H24.8126C24.1595 12.4165 23.4962 12.4757 22.8338 12.4581H22.8328C21.9245 12.4342 21.0214 12.2668 20.1545 11.9862C19.7716 11.8624 19.35 11.8853 19.0102 12.1009C18.3452 12.5227 17.7265 12.9854 17.1136 13.4216C18.4806 18.6923 21.8264 21.4135 27.2883 21.7211L28.6729 21.8001L28.5954 20.4063C28.458 17.946 27.8401 15.912 26.7283 14.2936C28.0623 13.7812 29.2826 12.9746 30.3541 11.8885L31.22 11.0102ZM11.3561 7.29542C10.0345 6.93267 8.74187 6.84744 7.47506 7.04077C6.48001 5.98059 5.85693 4.62003 5.56865 2.92479C8.35645 3.40394 10.235 4.81024 11.3561 7.29542ZM5.71847 18.9366C6.10596 17.3131 6.697 16.0034 7.51226 14.9869C7.93901 15.0503 8.36782 15.0815 8.80077 15.0815C9.70283 15.0815 10.6194 14.9443 11.5493 14.6699C10.545 16.8516 8.64681 18.2288 5.71847 18.9366ZM23.9374 7.09897C23.4559 7.06052 22.9651 7.05428 22.466 7.08234C21.6135 7.12912 20.7456 7.27879 19.89 7.51889C20.8696 5.22392 22.7925 3.78436 25.8076 3.05575C25.4077 4.72917 24.7929 6.06894 23.9374 7.09897ZM20.1111 14.5628C20.8954 14.7676 21.6869 14.8954 22.466 14.9391C22.993 14.9682 23.5106 14.9599 24.0169 14.9162H24.018C25.0316 15.9816 25.6661 17.3546 25.9575 19.0675C23.1201 18.5811 21.224 17.1322 20.1111 14.5628Z" fill="#FF7F50"/>
</g>
</g>
<path d="M166.006 12.7267C166.006 13.5738 166.015 14.3127 166.034 14.9433C166.053 15.5739 166.077 16.1198 166.105 16.581C166.142 17.0328 166.185 17.414 166.232 17.7246C166.288 18.0352 166.349 18.2893 166.415 18.487V18.5435H163.14V18.487C163.206 18.2893 163.262 18.0352 163.309 17.7246C163.366 17.414 163.408 17.0328 163.436 16.581C163.474 16.1198 163.502 15.5739 163.521 14.9433C163.54 14.3127 163.549 13.5738 163.549 12.7267V11.7525L158.467 5.0463C158.128 4.59451 157.803 4.23214 157.493 3.95918C157.182 3.67682 156.947 3.49798 156.787 3.42268V3.36621H160.796C160.796 3.53563 160.857 3.79917 160.98 4.15684C161.102 4.50509 161.352 4.93335 161.728 5.44161L165.314 10.1854L168.985 5.24396C169.248 4.88629 169.446 4.53333 169.578 4.18508C169.719 3.83682 169.79 3.56387 169.79 3.36621H172.373V3.42268C172.138 3.58269 171.893 3.78506 171.639 4.02977C171.394 4.27449 171.107 4.62275 170.778 5.07454L166.006 11.5408V12.7267Z" fill="#1B3D3F"/>
<path d="M156.123 16.8351C156.123 16.9574 156.109 17.061 156.081 17.1457C156.062 17.2304 156.01 17.301 155.925 17.3575C155.257 17.8281 154.476 18.2046 153.582 18.4869C152.697 18.7599 151.657 18.8964 150.462 18.8964C149.116 18.8964 147.887 18.7034 146.777 18.3175C145.675 17.9316 144.73 17.3951 143.939 16.708C143.148 16.0115 142.532 15.1785 142.089 14.2091C141.656 13.2396 141.44 12.1666 141.44 10.9901C141.44 9.98297 141.638 9.00409 142.033 8.05345C142.438 7.10282 143.016 6.26042 143.769 5.52626C144.522 4.79211 145.435 4.20384 146.508 3.76147C147.591 3.31909 148.81 3.0979 150.165 3.0979C150.871 3.0979 151.539 3.14026 152.17 3.22497C152.801 3.30027 153.408 3.42262 153.991 3.59204L155.05 6.13335L154.909 6.23218C154.344 5.58274 153.662 5.06977 152.862 4.69328C152.062 4.30738 151.144 4.11442 150.109 4.11442C149.262 4.11442 148.48 4.2509 147.765 4.52386C147.059 4.79681 146.443 5.19683 145.915 5.72392C145.398 6.24159 144.993 6.88163 144.701 7.64402C144.41 8.40641 144.264 9.27234 144.264 10.2418C144.264 11.3336 144.4 12.3454 144.673 13.2773C144.946 14.2091 145.355 15.0185 145.901 15.7056C146.447 16.3833 147.12 16.9151 147.92 17.301C148.73 17.6869 149.671 17.8798 150.744 17.8798C151.666 17.8798 152.382 17.7622 152.89 17.5269C153.408 17.2916 153.666 17.0233 153.666 16.7221V15.9739C153.666 15.4844 153.662 15.0609 153.652 14.7032C153.643 14.3455 153.629 14.0396 153.61 13.7855C153.591 13.522 153.563 13.2961 153.525 13.1078C153.497 12.9196 153.459 12.7455 153.412 12.5855V12.529H156.42V12.5855C156.372 12.7266 156.33 12.8961 156.292 13.0937C156.255 13.2914 156.222 13.5267 156.194 13.7996C156.175 14.0726 156.156 14.3926 156.137 14.7597C156.128 15.1268 156.123 15.5503 156.123 16.0303V16.8351Z" fill="#1B3D3F"/>
<path d="M123.2 10.9054C123.2 9.79472 123.407 8.76408 123.821 7.81344C124.244 6.8628 124.819 6.03923 125.543 5.34272C126.268 4.63681 127.125 4.08619 128.113 3.69087C129.101 3.29556 130.16 3.0979 131.29 3.0979C132.4 3.0979 133.445 3.28615 134.424 3.66264C135.412 4.02971 136.269 4.5568 136.993 5.2439C137.728 5.93099 138.306 6.76398 138.73 7.74285C139.153 8.72172 139.365 9.81825 139.365 11.0324C139.365 12.0395 139.186 13.0137 138.829 13.9549C138.471 14.8868 137.949 15.715 137.262 16.4398C136.575 17.1551 135.727 17.7293 134.72 18.1622C133.713 18.5858 132.56 18.7975 131.261 18.7975C130.16 18.7975 129.12 18.614 128.141 18.2469C127.162 17.8798 126.306 17.3575 125.572 16.6798C124.837 15.9927 124.259 15.1644 123.835 14.195C123.411 13.2161 123.2 12.1195 123.2 10.9054ZM131.614 17.7951C132.33 17.7951 132.988 17.654 133.591 17.3716C134.193 17.0892 134.711 16.6845 135.144 16.1574C135.586 15.6303 135.925 14.9903 136.16 14.2373C136.405 13.4749 136.527 12.6184 136.527 11.6678C136.527 10.5854 136.41 9.58295 136.175 8.66054C135.949 7.73814 135.6 6.94281 135.13 6.27454C134.669 5.59685 134.09 5.06977 133.393 4.69328C132.697 4.30738 131.883 4.11442 130.951 4.11442C130.235 4.11442 129.577 4.2509 128.974 4.52386C128.372 4.79681 127.849 5.19213 127.407 5.7098C126.974 6.22748 126.635 6.8628 126.39 7.61578C126.146 8.36876 126.023 9.22528 126.023 10.1853C126.023 11.2583 126.141 12.2607 126.376 13.1925C126.621 14.1149 126.974 14.9197 127.435 15.6068C127.906 16.2845 128.489 16.821 129.186 17.2163C129.882 17.6022 130.692 17.7951 131.614 17.7951Z" fill="#1B3D3F"/>
<path d="M115.434 17.4422C116.309 17.4422 117.114 17.4093 117.848 17.3434C118.592 17.2681 119.241 17.1881 119.796 17.1034C120.446 16.9999 121.034 16.8822 121.561 16.7504L121.237 18.6282C121.105 18.6188 120.879 18.6047 120.559 18.5858C120.248 18.5764 119.919 18.567 119.571 18.5576C119.222 18.5576 118.898 18.5529 118.596 18.5435C118.295 18.5435 118.088 18.5435 117.975 18.5435H112.568V18.487C112.634 18.2893 112.69 18.0352 112.737 17.7246C112.794 17.414 112.836 17.0328 112.864 16.581C112.902 16.1198 112.93 15.5739 112.949 14.9433C112.968 14.3127 112.977 13.5738 112.977 12.7267V9.16887C112.977 8.32176 112.968 7.58761 112.949 6.9664C112.93 6.33578 112.902 5.79457 112.864 5.34278C112.836 4.88158 112.794 4.49568 112.737 4.18508C112.69 3.87447 112.634 3.62034 112.568 3.42268V3.36621H115.829V3.42268C115.763 3.62034 115.707 3.87447 115.66 4.18508C115.613 4.49568 115.57 4.88158 115.533 5.34278C115.504 5.79457 115.481 6.33578 115.462 6.9664C115.443 7.58761 115.434 8.32176 115.434 9.16887V17.4422Z" fill="#1B3D3F"/>
<path d="M93.5225 10.9054C93.5225 9.79472 93.7295 8.76408 94.1437 7.81344C94.5672 6.8628 95.1414 6.03923 95.8661 5.34272C96.5909 4.63681 97.4474 4.08619 98.4357 3.69087C99.4239 3.29556 100.483 3.0979 101.612 3.0979C102.723 3.0979 103.768 3.28615 104.747 3.66264C105.735 4.02971 106.591 4.5568 107.316 5.2439C108.05 5.93099 108.629 6.76398 109.053 7.74285C109.476 8.72172 109.688 9.81825 109.688 11.0324C109.688 12.0395 109.509 13.0137 109.152 13.9549C108.794 14.8868 108.271 15.715 107.584 16.4398C106.897 17.1551 106.05 17.7293 105.043 18.1622C104.036 18.5858 102.883 18.7975 101.584 18.7975C100.483 18.7975 99.4428 18.614 98.4639 18.2469C97.485 17.8798 96.6285 17.3575 95.8943 16.6798C95.1602 15.9927 94.5813 15.1644 94.1578 14.195C93.7342 13.2161 93.5225 12.1195 93.5225 10.9054ZM101.937 17.7951C102.652 17.7951 103.311 17.654 103.914 17.3716C104.516 17.0892 105.034 16.6845 105.467 16.1574C105.909 15.6303 106.248 14.9903 106.483 14.2373C106.728 13.4749 106.85 12.6184 106.85 11.6678C106.85 10.5854 106.733 9.58295 106.497 8.66054C106.271 7.73814 105.923 6.94281 105.452 6.27454C104.991 5.59685 104.412 5.06977 103.716 4.69328C103.019 4.30738 102.205 4.11442 101.273 4.11442C100.558 4.11442 99.8993 4.2509 99.2969 4.52386C98.6945 4.79681 98.1721 5.19213 97.7297 5.7098C97.2968 6.22748 96.9579 6.8628 96.7132 7.61578C96.4685 8.36876 96.3461 9.22528 96.3461 10.1853C96.3461 11.2583 96.4638 12.2607 96.6991 13.1925C96.9438 14.1149 97.2968 14.9197 97.758 15.6068C98.2286 16.2845 98.8121 16.821 99.5087 17.2163C100.205 17.6022 101.015 17.7951 101.937 17.7951Z" fill="#1B3D3F"/>
<path d="M85.2916 11.1174C84.8398 11.1174 84.4539 11.1362 84.1339 11.1738C83.8233 11.2021 83.5833 11.2303 83.4139 11.2585V12.7269C83.4139 13.5363 83.4139 14.214 83.4139 14.7599C83.4233 15.3058 83.4327 15.7623 83.4421 16.1294C83.4609 16.4965 83.4751 16.7929 83.4845 17.0188C83.4939 17.2353 83.508 17.4236 83.5268 17.5836C83.7715 17.6495 84.0304 17.6918 84.3033 17.7106C84.5857 17.7295 84.8069 17.7389 84.9669 17.7389C86.2658 17.7389 87.207 17.4565 87.7906 16.8918C88.3836 16.3176 88.68 15.4329 88.68 14.2375C88.68 13.7857 88.6094 13.3669 88.4683 12.981C88.3271 12.5951 88.1153 12.2657 87.8329 11.9927C87.5506 11.7197 87.1976 11.508 86.7741 11.3574C86.3505 11.1974 85.8564 11.1174 85.2916 11.1174ZM83.4139 10.1573C83.6021 10.1855 83.7715 10.2044 83.9221 10.2138C84.0727 10.2138 84.228 10.2138 84.3881 10.2138C85.3387 10.2138 86.0917 9.95024 86.647 9.42315C87.2117 8.89606 87.4941 8.11014 87.4941 7.06538C87.4941 6.64183 87.4376 6.25122 87.3247 5.89356C87.2117 5.53589 87.047 5.22999 86.8305 4.97586C86.6235 4.72173 86.3599 4.52407 86.0399 4.38289C85.7293 4.2417 85.3716 4.17111 84.9669 4.17111C84.6939 4.17111 84.4634 4.18523 84.2751 4.21347C84.0869 4.23229 83.9268 4.25112 83.7951 4.26994C83.6445 4.30759 83.5174 4.34053 83.4139 4.36877V10.1573ZM80.5479 3.33813C80.7267 3.34754 80.9102 3.35225 81.0985 3.35225C81.2585 3.36166 81.4326 3.36636 81.6208 3.36636C81.8091 3.36636 81.9926 3.36636 82.1715 3.36636C82.4632 3.36636 82.868 3.34754 83.3856 3.30989C83.9033 3.27224 84.5481 3.25342 85.3199 3.25342C86.007 3.25342 86.6423 3.33813 87.2258 3.50755C87.8188 3.66756 88.3271 3.90286 88.7506 4.21347C89.1836 4.52407 89.5177 4.90527 89.753 5.35706C89.9978 5.80884 90.1201 6.32181 90.1201 6.89596C90.1201 7.3854 90.0495 7.82307 89.9083 8.20897C89.7766 8.58546 89.5836 8.9196 89.3295 9.21138C89.0754 9.49374 88.7695 9.73376 88.4118 9.93141C88.0541 10.1197 87.6588 10.2703 87.2258 10.3832C87.8565 10.4773 88.4306 10.6326 88.9483 10.8491C89.466 11.0656 89.9083 11.3385 90.2754 11.668C90.6425 11.988 90.9249 12.3692 91.1225 12.8116C91.3202 13.2445 91.419 13.7293 91.419 14.2658C91.419 15.7529 90.8872 16.8682 89.8236 17.6118C88.76 18.346 87.1741 18.713 85.0657 18.713C84.8398 18.713 84.5575 18.7036 84.2186 18.6848C83.8892 18.666 83.5409 18.6472 83.1739 18.6283C82.8162 18.6095 82.468 18.5907 82.1291 18.5719C81.7997 18.553 81.522 18.5436 81.2961 18.5436H80.5479V18.4872C80.6137 18.2895 80.6702 18.0354 80.7173 17.7248C80.7737 17.4142 80.8161 17.033 80.8443 16.5812C80.882 16.12 80.9102 15.5741 80.929 14.9434C80.9479 14.3128 80.9573 13.574 80.9573 12.7269V9.16902C80.9573 8.32192 80.9479 7.58305 80.929 6.95243C80.9102 6.32181 80.882 5.7759 80.8443 5.3147C80.8161 4.8535 80.7737 4.4676 80.7173 4.15699C80.6702 3.84639 80.6137 3.59226 80.5479 3.3946V3.33813Z" fill="#1B3D3F"/>
<path d="M68.9847 11.1738C69.1729 11.2021 69.3612 11.2256 69.5494 11.2444C69.7471 11.2538 69.9353 11.2585 70.1142 11.2585C71.2907 11.2585 72.1801 10.9432 72.7825 10.3126C73.3943 9.68199 73.7002 8.73606 73.7002 7.47481C73.7002 6.43947 73.4555 5.6206 72.9661 5.01821C72.486 4.41583 71.7754 4.11464 70.8342 4.11464C70.533 4.11464 70.2647 4.12876 70.0294 4.15699C69.8035 4.17582 69.6106 4.19935 69.4506 4.22759C69.2718 4.26523 69.1165 4.30288 68.9847 4.34053V11.1738ZM71.1448 12.0915C70.9566 12.1198 70.7683 12.1386 70.5801 12.148C70.4012 12.148 70.2177 12.148 70.0294 12.148C69.8788 12.148 69.7141 12.1433 69.5353 12.1339C69.3565 12.1245 69.1729 12.1103 68.9847 12.0915V12.7833C68.9847 13.621 68.9941 14.3552 69.0129 14.9858C69.0317 15.607 69.0553 16.1435 69.0835 16.5953C69.1212 17.0471 69.1635 17.4283 69.2106 17.7389C69.2576 18.0401 69.3141 18.2895 69.38 18.4872V18.5436H66.1187V18.4872C66.1845 18.2895 66.241 18.0354 66.2881 17.7248C66.3445 17.4142 66.3869 17.033 66.4151 16.5812C66.4528 16.12 66.481 15.5741 66.4998 14.9434C66.5187 14.3128 66.5281 13.574 66.5281 12.7269V9.16902C66.5281 8.32192 66.5187 7.58776 66.4998 6.96655C66.481 6.33593 66.4528 5.79473 66.4151 5.34294C66.3869 4.88174 66.3445 4.49584 66.2881 4.18523C66.241 3.87463 66.1845 3.6205 66.1187 3.42284V3.36636C66.2692 3.37578 66.4293 3.38519 66.5987 3.3946C66.7399 3.40401 66.8952 3.41343 67.0646 3.42284C67.2434 3.42284 67.4223 3.42284 67.6011 3.42284C67.9023 3.42284 68.3494 3.3946 68.9423 3.33813C69.5353 3.28165 70.2318 3.25342 71.0318 3.25342C71.8413 3.25342 72.5755 3.35225 73.2343 3.5499C73.9026 3.74756 74.472 4.02993 74.9426 4.39701C75.4227 4.76408 75.7897 5.21117 76.0439 5.73825C76.3074 6.26534 76.4392 6.8536 76.4392 7.50305C76.4392 8.01131 76.3686 8.47722 76.2274 8.90077C76.0862 9.31491 75.8886 9.6914 75.6344 10.0302C75.3803 10.3597 75.0791 10.6514 74.7309 10.9056C74.3826 11.1597 73.9967 11.3809 73.5732 11.5691L76.5239 15.7341C76.778 16.0729 77.0322 16.3976 77.2863 16.7082C77.5498 17.0188 77.7993 17.2965 78.0346 17.5412C78.2699 17.7859 78.4911 17.993 78.6981 18.1624C78.9052 18.3224 79.0793 18.4307 79.2205 18.4872V18.5436H75.5215C75.5215 18.4589 75.4603 18.313 75.338 18.106C75.225 17.8895 75.0885 17.6683 74.9285 17.4424C74.7779 17.2071 74.6226 16.9812 74.4626 16.7647C74.312 16.5482 74.1991 16.3882 74.1238 16.2847L71.1448 12.0915Z" fill="#1B3D3F"/>
<path d="M54.0332 3.36571C54.9556 3.36571 55.9015 3.36571 56.871 3.36571C57.8405 3.3563 58.7393 3.34688 59.5676 3.33747C60.3959 3.31865 61.1065 3.29982 61.6995 3.281C62.3019 3.26217 62.6972 3.23394 62.8854 3.19629L62.3348 4.72107C62.0807 4.65519 61.7936 4.59401 61.4736 4.53754C61.1912 4.49047 60.8477 4.44812 60.4429 4.41047C60.0476 4.36341 59.5864 4.33988 59.0593 4.33988C58.8711 4.33988 58.6546 4.34929 58.4099 4.36811C58.1652 4.37753 57.9299 4.39164 57.704 4.41047C57.4404 4.42929 57.1722 4.44812 56.8992 4.46694V10.0437C57.6616 10.0343 58.3487 10.0155 58.9605 9.98723C59.5723 9.95899 60.0947 9.92134 60.5277 9.87428C61.0359 9.83663 61.483 9.78487 61.8689 9.71898L61.5301 11.3991C61.0124 11.3332 60.49 11.2767 59.9629 11.2296C59.5111 11.1826 59.0123 11.1449 58.4664 11.1167C57.9205 11.0791 57.3981 11.0602 56.8992 11.0602V17.47C57.7746 17.47 58.5793 17.437 59.3135 17.3711C60.0476 17.2958 60.6877 17.2158 61.2336 17.1311C61.8736 17.0276 62.4525 16.9099 62.9701 16.7782L62.6454 18.6277C62.5042 18.6183 62.2736 18.6041 61.9536 18.5853C61.643 18.5759 61.3136 18.5665 60.9653 18.5571C60.6265 18.5571 60.3065 18.5524 60.0053 18.543C59.7041 18.543 59.497 18.543 59.3841 18.543H54.0332V18.4865C54.0991 18.2888 54.1556 18.0347 54.2026 17.7241C54.2591 17.4135 54.3015 17.0323 54.3297 16.5805C54.3673 16.1193 54.3956 15.5734 54.4144 14.9428C54.4332 14.3122 54.4426 13.5733 54.4426 12.7262V9.16836C54.4426 8.32126 54.4332 7.5871 54.4144 6.9659C54.3956 6.33527 54.3673 5.79407 54.3297 5.34228C54.3015 4.88108 54.2591 4.49518 54.2026 4.18458C54.1556 3.87397 54.0991 3.61984 54.0332 3.42218V3.36571Z" fill="#1B3D3F"/>
<path d="M47.4539 11.2866C47.1621 11.2866 46.7998 11.2866 46.3668 11.2866C45.9338 11.2772 45.4632 11.2678 44.955 11.2584C44.4467 11.249 43.9196 11.2443 43.3737 11.2443C42.8278 11.2349 42.3007 11.2301 41.7924 11.2301C41.3124 11.2301 40.8606 11.2349 40.4371 11.2443C40.0229 11.2537 39.6653 11.2678 39.3641 11.2866V12.7267C39.3641 13.5738 39.3735 14.3127 39.3923 14.9433C39.4111 15.5739 39.4347 16.1198 39.4629 16.581C39.5006 17.0328 39.5429 17.414 39.59 17.7246C39.637 18.0352 39.6935 18.2893 39.7594 18.487V18.5435H36.498V18.487C36.5639 18.2893 36.6204 18.0352 36.6675 17.7246C36.7239 17.414 36.7663 17.0328 36.7945 16.581C36.8322 16.1198 36.8604 15.5739 36.8792 14.9433C36.8981 14.3127 36.9075 13.5738 36.9075 12.7267V9.16887C36.9075 8.32176 36.8981 7.58761 36.8792 6.9664C36.8604 6.33578 36.8322 5.79457 36.7945 5.34278C36.7663 4.88158 36.7239 4.49568 36.6675 4.18508C36.6204 3.87447 36.5639 3.62034 36.498 3.42268V3.36621H39.7594V3.42268C39.6935 3.62034 39.637 3.87447 39.59 4.18508C39.5429 4.49568 39.5006 4.88158 39.4629 5.34278C39.4347 5.79457 39.4111 6.33578 39.3923 6.9664C39.3735 7.58761 39.3641 8.32176 39.3641 9.16887V10.1289H41.4395C41.9572 10.1289 42.5031 10.1289 43.0772 10.1289C43.6514 10.1195 44.2067 10.1148 44.7432 10.1148C45.2797 10.1054 45.7832 10.096 46.2538 10.0866C46.7245 10.0771 47.1245 10.063 47.4539 10.0442V9.16887C47.4539 8.32176 47.4445 7.58761 47.4257 6.9664C47.4069 6.33578 47.3786 5.79457 47.341 5.34278C47.3127 4.88158 47.2751 4.49568 47.228 4.18508C47.181 3.87447 47.1245 3.62034 47.0586 3.42268V3.36621H50.3199V3.42268C50.2541 3.62034 50.1929 3.87447 50.1364 4.18508C50.0893 4.49568 50.047 4.88158 50.0093 5.34278C49.9811 5.79457 49.9576 6.33578 49.9387 6.9664C49.9199 7.58761 49.9105 8.32176 49.9105 9.16887V12.7267C49.9105 13.5738 49.9199 14.3127 49.9387 14.9433C49.9576 15.5739 49.9811 16.1198 50.0093 16.581C50.047 17.0328 50.0893 17.414 50.1364 17.7246C50.1929 18.0352 50.2541 18.2893 50.3199 18.487V18.5435H47.0586V18.487C47.1245 18.2893 47.181 18.0352 47.228 17.7246C47.2751 17.414 47.3127 17.0328 47.341 16.581C47.3786 16.1198 47.4069 15.5739 47.4257 14.9433C47.4445 14.3127 47.4539 13.5738 47.4539 12.7267V11.2866Z" fill="#1B3D3F"/>
<path d="M170.317 18.114V16.6358H170.757C170.941 16.6358 171.075 16.6738 171.161 16.75C171.246 16.8239 171.288 16.9337 171.288 17.0792C171.288 17.1845 171.261 17.2685 171.208 17.3312C171.154 17.3917 171.093 17.4354 171.026 17.4622L171.416 18.114H171.117L170.791 17.5429H170.583V18.114H170.317ZM170.751 17.3245C170.838 17.3245 170.904 17.3021 170.949 17.2573C170.996 17.2125 171.019 17.1554 171.019 17.086C171.019 17.0076 170.998 16.9505 170.956 16.9146C170.915 16.8788 170.846 16.8609 170.747 16.8609H170.583V17.3245H170.751ZM170.788 18.6112C170.608 18.6112 170.444 18.581 170.294 18.5205C170.144 18.46 170.013 18.3749 169.901 18.2652C169.791 18.1532 169.706 18.0222 169.645 17.8721C169.585 17.722 169.555 17.5574 169.555 17.3782C169.555 17.2035 169.585 17.0423 169.645 16.8945C169.708 16.7444 169.794 16.6134 169.904 16.5014C170.016 16.3894 170.147 16.302 170.297 16.2393C170.447 16.1766 170.611 16.1453 170.788 16.1453C170.958 16.1453 171.117 16.1755 171.265 16.236C171.415 16.2964 171.546 16.3827 171.658 16.4947C171.772 16.6044 171.861 16.7343 171.923 16.8844C171.988 17.0344 172.021 17.1991 172.021 17.3782C172.021 17.5574 171.99 17.722 171.93 17.8721C171.869 18.0222 171.783 18.1532 171.671 18.2652C171.562 18.3749 171.432 18.46 171.282 18.5205C171.131 18.581 170.967 18.6112 170.788 18.6112ZM170.788 18.4096C170.929 18.4096 171.06 18.385 171.181 18.3357C171.304 18.2842 171.411 18.2125 171.503 18.1207C171.597 18.0267 171.67 17.9169 171.722 17.7915C171.775 17.6661 171.802 17.5283 171.802 17.3782C171.802 17.2349 171.777 17.1016 171.725 16.9784C171.676 16.853 171.605 16.7433 171.513 16.6492C171.422 16.5529 171.314 16.4779 171.191 16.4241C171.068 16.3704 170.933 16.3435 170.788 16.3435C170.64 16.3435 170.504 16.3692 170.381 16.4208C170.258 16.4723 170.15 16.5439 170.059 16.6358C169.967 16.7276 169.895 16.8373 169.844 16.965C169.792 17.0904 169.766 17.2282 169.766 17.3782C169.766 17.5261 169.791 17.6627 169.84 17.7881C169.892 17.9135 169.962 18.0233 170.052 18.1174C170.144 18.2092 170.251 18.2809 170.374 18.3324C170.5 18.3839 170.638 18.4096 170.788 18.4096Z" fill="#1B3D3F"/>
<defs>
<clipPath id="clip0_444_651">
<rect width="30.6731" height="21.927" fill="white" transform="translate(0.57666 0.0336914)"/>
</clipPath>
<clipPath id="clip1_444_651">
<rect width="30.6731" height="21.927" fill="white" transform="translate(0.547852 0.0332031)"/>
</clipPath>
</defs>
</svg>
