<svg width="173" height="30" viewBox="0 0 173 30" fill="none" xmlns="http://www.w3.org/2000/svg">
<g clip-path="url(#clip0_444_728)">
<g clip-path="url(#clip1_444_728)">
<path d="M31.22 11.0102L30.3541 10.1319C29.2475 9.00937 27.9796 8.18618 26.594 7.67688C27.588 6.09181 28.2472 4.09306 28.5851 1.67024L28.8135 0.0332031L27.1861 0.261869C21.286 1.09234 17.9113 3.87583 16.9286 8.74537C16.8697 8.77863 16.8108 8.81189 16.7519 8.84723C15.7001 9.46463 14.7112 10.2909 13.5932 11.005C13.5963 11.0071 13.5983 11.0081 13.6014 11.0102C13.5911 11.0164 13.5818 11.0227 13.5715 11.0279C13.4485 11.1037 13.3256 11.1765 13.2036 11.2451C13.1726 11.2638 13.1406 11.2825 13.1086 11.3002C12.6477 11.56 12.1951 11.7804 11.7498 11.9592C11.7488 11.9592 11.7488 11.9592 11.7488 11.9592C11.4977 12.061 11.2476 12.1494 11.0007 12.2252C10.9562 12.2398 10.9118 12.2523 10.8663 12.2647C10.0015 12.5152 9.16141 12.6098 8.33685 12.5495C7.78714 12.509 7.24363 12.3988 6.70529 12.22C5.92619 11.9612 5.1564 11.558 4.38763 11.0102C5.1812 10.4448 5.97579 10.0332 6.78072 9.77644C7.36763 9.58831 7.95867 9.48229 8.55901 9.45839C9.52203 9.41993 10.5078 9.59247 11.5287 9.976C11.9015 10.1157 12.3213 10.1004 12.6553 9.88371C13.2835 9.47627 13.8717 9.03631 14.4549 8.62168C14.4436 8.6144 14.4312 8.60713 14.4198 8.60089C13.059 3.31144 9.71009 0.579922 4.2378 0.271223L2.8532 0.193269L2.9307 1.58605C3.07226 4.11489 3.72116 6.19263 4.89084 7.83278C3.77076 8.35248 2.66928 9.10188 1.58123 10.0799L0.546906 11.0102L1.58123 11.9405C2.69924 12.9466 3.83379 13.7095 4.98487 14.2323C3.96192 15.8298 3.28408 17.8567 2.94103 20.3221L2.71267 21.9602L4.3401 21.7305C10.2092 20.9052 13.5787 18.1477 14.581 13.326C14.8776 13.1513 15.1762 12.9642 15.4758 12.7647C15.4862 12.7585 15.4965 12.7512 15.5058 12.7439C16.2911 12.192 17.0454 11.5694 17.9877 11.0133C17.9867 11.0133 17.9846 11.0123 17.9836 11.0112H17.9826C17.9815 11.0112 17.9815 11.0102 17.9805 11.0102C18.0001 10.9988 18.0198 10.9873 18.0394 10.9769C18.6563 10.6194 19.3155 10.3169 19.9996 10.0851C20.9688 9.75461 21.9876 9.56441 23.0106 9.56025H23.0116C23.6233 9.55609 24.235 9.61949 24.8384 9.75773H24.8395C25.788 9.976 26.7128 10.3803 27.5766 11.0102C26.7056 11.6463 25.7715 12.0527 24.8136 12.2689H24.8126C24.1596 12.4165 23.4962 12.4757 22.8339 12.4581H22.8328C21.9246 12.4342 21.0215 12.2668 20.1545 11.9862C19.7717 11.8624 19.3501 11.8853 19.0103 12.1009C18.3452 12.5227 17.7265 12.9854 17.1136 13.4216C18.4806 18.6923 21.8264 21.4135 27.2884 21.7211L28.673 21.8001L28.5955 20.4063C28.458 17.946 27.8401 15.912 26.7283 14.2936C28.0623 13.7812 29.2826 12.9746 30.3541 11.8885L31.22 11.0102ZM11.3561 7.29542C10.0345 6.93267 8.7419 6.84744 7.47509 7.04077C6.48004 5.98059 5.85696 4.62003 5.56868 2.92479C8.35648 3.40394 10.235 4.81024 11.3561 7.29542ZM5.7185 18.9366C6.10599 17.3131 6.69703 16.0034 7.51229 14.9869C7.93904 15.0503 8.36785 15.0815 8.8008 15.0815C9.70286 15.0815 10.6194 14.9443 11.5493 14.6699C10.545 16.8516 8.64684 18.2288 5.7185 18.9366ZM23.9374 7.09897C23.4559 7.06052 22.9651 7.05428 22.466 7.08234C21.6136 7.12912 20.7456 7.27879 19.89 7.51889C20.8696 5.22392 22.7925 3.78436 25.8077 3.05575C25.4078 4.72917 24.793 6.06894 23.9374 7.09897ZM20.1112 14.5628C20.8954 14.7676 21.6869 14.8954 22.466 14.9391C22.993 14.9682 23.5107 14.9599 24.017 14.9162H24.018C25.0317 15.9816 25.6661 17.3546 25.9575 19.0675C23.1201 18.5811 21.224 17.1322 20.1112 14.5628Z" fill="#FF7F50"/>
</g>
</g>
<path d="M166.006 12.7267C166.006 13.5738 166.016 14.3127 166.034 14.9433C166.053 15.5739 166.077 16.1198 166.105 16.581C166.143 17.0328 166.185 17.414 166.232 17.7246C166.289 18.0352 166.35 18.2893 166.416 18.487V18.5435H163.14V18.487C163.206 18.2893 163.262 18.0352 163.31 17.7246C163.366 17.414 163.408 17.0328 163.437 16.581C163.474 16.1198 163.502 15.5739 163.521 14.9433C163.54 14.3127 163.55 13.5738 163.55 12.7267V11.7525L158.467 5.0463C158.128 4.59451 157.803 4.23214 157.493 3.95918C157.182 3.67682 156.947 3.49798 156.787 3.42268V3.36621H160.796C160.796 3.53563 160.858 3.79917 160.98 4.15684C161.102 4.50509 161.352 4.93335 161.728 5.44161L165.314 10.1854L168.985 5.24396C169.249 4.88629 169.446 4.53333 169.578 4.18508C169.719 3.83682 169.79 3.56387 169.79 3.36621H172.374V3.42268C172.138 3.58269 171.894 3.78506 171.639 4.02977C171.395 4.27449 171.108 4.62275 170.778 5.07454L166.006 11.5408V12.7267Z" fill="#1B3D3F"/>
<path d="M156.123 16.8351C156.123 16.9574 156.109 17.061 156.081 17.1457C156.062 17.2304 156.01 17.301 155.926 17.3575C155.257 17.8281 154.476 18.2046 153.582 18.4869C152.697 18.7599 151.657 18.8964 150.462 18.8964C149.116 18.8964 147.887 18.7034 146.777 18.3175C145.676 17.9316 144.73 17.3951 143.939 16.708C143.148 16.0115 142.532 15.1785 142.089 14.2091C141.657 13.2396 141.44 12.1666 141.44 10.9901C141.44 9.98297 141.638 9.00409 142.033 8.05345C142.438 7.10282 143.017 6.26042 143.77 5.52626C144.523 4.79211 145.436 4.20384 146.509 3.76147C147.591 3.31909 148.81 3.0979 150.165 3.0979C150.871 3.0979 151.539 3.14026 152.17 3.22497C152.801 3.30027 153.408 3.42262 153.991 3.59204L155.05 6.13335L154.909 6.23218C154.344 5.58274 153.662 5.06977 152.862 4.69328C152.062 4.30738 151.144 4.11442 150.109 4.11442C149.262 4.11442 148.48 4.2509 147.765 4.52386C147.059 4.79681 146.443 5.19683 145.916 5.72392C145.398 6.24159 144.993 6.88163 144.701 7.64402C144.41 8.40641 144.264 9.27234 144.264 10.2418C144.264 11.3336 144.4 12.3454 144.673 13.2773C144.946 14.2091 145.356 15.0185 145.901 15.7056C146.447 16.3833 147.12 16.9151 147.92 17.301C148.73 17.6869 149.671 17.8798 150.744 17.8798C151.666 17.8798 152.382 17.7622 152.89 17.5269C153.408 17.2916 153.667 17.0233 153.667 16.7221V15.9739C153.667 15.4844 153.662 15.0609 153.652 14.7032C153.643 14.3455 153.629 14.0396 153.61 13.7855C153.591 13.522 153.563 13.2961 153.525 13.1078C153.497 12.9196 153.46 12.7455 153.412 12.5855V12.529H156.42V12.5855C156.373 12.7266 156.33 12.8961 156.293 13.0937C156.255 13.2914 156.222 13.5267 156.194 13.7996C156.175 14.0726 156.156 14.3926 156.137 14.7597C156.128 15.1268 156.123 15.5503 156.123 16.0303V16.8351Z" fill="#1B3D3F"/>
<path d="M123.2 10.9054C123.2 9.79472 123.407 8.76408 123.821 7.81344C124.244 6.8628 124.819 6.03923 125.543 5.34272C126.268 4.63681 127.125 4.08619 128.113 3.69087C129.101 3.29556 130.16 3.0979 131.29 3.0979C132.4 3.0979 133.445 3.28615 134.424 3.66264C135.412 4.02971 136.269 4.5568 136.993 5.2439C137.728 5.93099 138.306 6.76398 138.73 7.74285C139.153 8.72172 139.365 9.81825 139.365 11.0324C139.365 12.0395 139.186 13.0137 138.829 13.9549C138.471 14.8868 137.949 15.715 137.262 16.4398C136.575 17.1551 135.727 17.7293 134.72 18.1622C133.713 18.5858 132.56 18.7975 131.261 18.7975C130.16 18.7975 129.12 18.614 128.141 18.2469C127.162 17.8798 126.306 17.3575 125.572 16.6798C124.837 15.9927 124.259 15.1644 123.835 14.195C123.411 13.2161 123.2 12.1195 123.2 10.9054ZM131.614 17.7951C132.33 17.7951 132.988 17.654 133.591 17.3716C134.193 17.0892 134.711 16.6845 135.144 16.1574C135.586 15.6303 135.925 14.9903 136.16 14.2373C136.405 13.4749 136.527 12.6184 136.527 11.6678C136.527 10.5854 136.41 9.58295 136.175 8.66054C135.949 7.73814 135.6 6.94281 135.13 6.27454C134.669 5.59685 134.09 5.06977 133.393 4.69328C132.697 4.30738 131.883 4.11442 130.951 4.11442C130.235 4.11442 129.577 4.2509 128.974 4.52386C128.372 4.79681 127.849 5.19213 127.407 5.7098C126.974 6.22748 126.635 6.8628 126.39 7.61578C126.146 8.36876 126.023 9.22528 126.023 10.1853C126.023 11.2583 126.141 12.2607 126.376 13.1925C126.621 14.1149 126.974 14.9197 127.435 15.6068C127.906 16.2845 128.489 16.821 129.186 17.2163C129.882 17.6022 130.692 17.7951 131.614 17.7951Z" fill="#1B3D3F"/>
<path d="M115.434 17.4422C116.309 17.4422 117.114 17.4093 117.848 17.3434C118.592 17.2681 119.241 17.1881 119.796 17.1034C120.446 16.9999 121.034 16.8822 121.561 16.7504L121.237 18.6282C121.105 18.6188 120.879 18.6047 120.559 18.5858C120.248 18.5764 119.919 18.567 119.571 18.5576C119.222 18.5576 118.898 18.5529 118.596 18.5435C118.295 18.5435 118.088 18.5435 117.975 18.5435H112.568V18.487C112.634 18.2893 112.69 18.0352 112.737 17.7246C112.794 17.414 112.836 17.0328 112.864 16.581C112.902 16.1198 112.93 15.5739 112.949 14.9433C112.968 14.3127 112.977 13.5738 112.977 12.7267V9.16887C112.977 8.32176 112.968 7.58761 112.949 6.9664C112.93 6.33578 112.902 5.79457 112.864 5.34278C112.836 4.88158 112.794 4.49568 112.737 4.18508C112.69 3.87447 112.634 3.62034 112.568 3.42268V3.36621H115.829V3.42268C115.763 3.62034 115.707 3.87447 115.66 4.18508C115.613 4.49568 115.57 4.88158 115.533 5.34278C115.504 5.79457 115.481 6.33578 115.462 6.9664C115.443 7.58761 115.434 8.32176 115.434 9.16887V17.4422Z" fill="#1B3D3F"/>
<path d="M93.5226 10.9054C93.5226 9.79472 93.7296 8.76408 94.1438 7.81344C94.5673 6.8628 95.1415 6.03923 95.8662 5.34272C96.5909 4.63681 97.4475 4.08619 98.4357 3.69087C99.424 3.29556 100.483 3.0979 101.612 3.0979C102.723 3.0979 103.768 3.28615 104.747 3.66264C105.735 4.02971 106.591 4.5568 107.316 5.2439C108.05 5.93099 108.629 6.76398 109.053 7.74285C109.476 8.72172 109.688 9.81825 109.688 11.0324C109.688 12.0395 109.509 13.0137 109.152 13.9549C108.794 14.8868 108.272 15.715 107.584 16.4398C106.897 17.1551 106.05 17.7293 105.043 18.1622C104.036 18.5858 102.883 18.7975 101.584 18.7975C100.483 18.7975 99.4429 18.614 98.464 18.2469C97.4851 17.8798 96.6286 17.3575 95.8944 16.6798C95.1603 15.9927 94.5814 15.1644 94.1579 14.195C93.7343 13.2161 93.5226 12.1195 93.5226 10.9054ZM101.937 17.7951C102.652 17.7951 103.311 17.654 103.914 17.3716C104.516 17.0892 105.034 16.6845 105.467 16.1574C105.909 15.6303 106.248 14.9903 106.483 14.2373C106.728 13.4749 106.85 12.6184 106.85 11.6678C106.85 10.5854 106.733 9.58295 106.497 8.66054C106.271 7.73814 105.923 6.94281 105.453 6.27454C104.991 5.59685 104.413 5.06977 103.716 4.69328C103.02 4.30738 102.205 4.11442 101.274 4.11442C100.558 4.11442 99.8994 4.2509 99.297 4.52386C98.6946 4.79681 98.1722 5.19213 97.7298 5.7098C97.2969 6.22748 96.958 6.8628 96.7133 7.61578C96.4686 8.36876 96.3462 9.22528 96.3462 10.1853C96.3462 11.2583 96.4639 12.2607 96.6992 13.1925C96.9439 14.1149 97.2969 14.9197 97.7581 15.6068C98.2287 16.2845 98.8122 16.821 99.5087 17.2163C100.205 17.6022 101.015 17.7951 101.937 17.7951Z" fill="#1B3D3F"/>
<path d="M85.2917 11.1174C84.8399 11.1174 84.454 11.1362 84.134 11.1738C83.8234 11.2021 83.5833 11.2303 83.4139 11.2585V12.7269C83.4139 13.5363 83.4139 14.214 83.4139 14.7599C83.4233 15.3058 83.4328 15.7623 83.4422 16.1294C83.461 16.4965 83.4751 16.7929 83.4845 17.0188C83.4939 17.2353 83.508 17.4236 83.5269 17.5836C83.7716 17.6495 84.0304 17.6918 84.3034 17.7106C84.5858 17.7295 84.8069 17.7389 84.9669 17.7389C86.2658 17.7389 87.2071 17.4565 87.7906 16.8918C88.3836 16.3176 88.6801 15.4329 88.6801 14.2375C88.6801 13.7857 88.6095 13.3669 88.4683 12.981C88.3271 12.5951 88.1153 12.2657 87.833 11.9927C87.5506 11.7197 87.1977 11.508 86.7741 11.3574C86.3506 11.1974 85.8564 11.1174 85.2917 11.1174ZM83.4139 10.1573C83.6022 10.1855 83.7716 10.2044 83.9222 10.2138C84.0728 10.2138 84.2281 10.2138 84.3881 10.2138C85.3387 10.2138 86.0917 9.95024 86.647 9.42315C87.2118 8.89606 87.4941 8.11014 87.4941 7.06538C87.4941 6.64183 87.4377 6.25122 87.3247 5.89356C87.2118 5.53589 87.0471 5.22999 86.8306 4.97586C86.6235 4.72173 86.36 4.52407 86.0399 4.38289C85.7293 4.2417 85.3717 4.17111 84.9669 4.17111C84.694 4.17111 84.4634 4.18523 84.2752 4.21347C84.0869 4.23229 83.9269 4.25112 83.7951 4.26994C83.6445 4.30759 83.5175 4.34053 83.4139 4.36877V10.1573ZM80.5479 3.33813C80.7267 3.34754 80.9103 3.35225 81.0985 3.35225C81.2585 3.36166 81.4326 3.36636 81.6209 3.36636C81.8091 3.36636 81.9927 3.36636 82.1715 3.36636C82.4633 3.36636 82.868 3.34754 83.3857 3.30989C83.9034 3.27224 84.5481 3.25342 85.3199 3.25342C86.007 3.25342 86.6423 3.33813 87.2259 3.50755C87.8189 3.66756 88.3271 3.90286 88.7507 4.21347C89.1836 4.52407 89.5178 4.90527 89.7531 5.35706C89.9978 5.80884 90.1202 6.32181 90.1202 6.89596C90.1202 7.3854 90.0496 7.82307 89.9084 8.20897C89.7766 8.58546 89.5837 8.9196 89.3295 9.21138C89.0754 9.49374 88.7695 9.73376 88.4118 9.93141C88.0542 10.1197 87.6589 10.2703 87.2259 10.3832C87.8565 10.4773 88.4307 10.6326 88.9483 10.8491C89.466 11.0656 89.9084 11.3385 90.2755 11.668C90.6425 11.988 90.9249 12.3692 91.1226 12.8116C91.3202 13.2445 91.4191 13.7293 91.4191 14.2658C91.4191 15.7529 90.8873 16.8682 89.8237 17.6118C88.7601 18.346 87.1741 18.713 85.0658 18.713C84.8399 18.713 84.5575 18.7036 84.2187 18.6848C83.8892 18.666 83.541 18.6472 83.1739 18.6283C82.8163 18.6095 82.468 18.5907 82.1292 18.5719C81.7997 18.553 81.5221 18.5436 81.2962 18.5436H80.5479V18.4872C80.6138 18.2895 80.6703 18.0354 80.7173 17.7248C80.7738 17.4142 80.8161 17.033 80.8444 16.5812C80.882 16.12 80.9103 15.5741 80.9291 14.9434C80.9479 14.3128 80.9573 13.574 80.9573 12.7269V9.16902C80.9573 8.32192 80.9479 7.58305 80.9291 6.95243C80.9103 6.32181 80.882 5.7759 80.8444 5.3147C80.8161 4.8535 80.7738 4.4676 80.7173 4.15699C80.6703 3.84639 80.6138 3.59226 80.5479 3.3946V3.33813Z" fill="#1B3D3F"/>
<path d="M68.9847 11.1738C69.173 11.2021 69.3612 11.2256 69.5494 11.2444C69.7471 11.2538 69.9354 11.2585 70.1142 11.2585C71.2907 11.2585 72.1802 10.9432 72.7826 10.3126C73.3944 9.68199 73.7003 8.73606 73.7003 7.47481C73.7003 6.43947 73.4555 5.6206 72.9661 5.01821C72.4861 4.41583 71.7754 4.11464 70.8342 4.11464C70.533 4.11464 70.2648 4.12876 70.0295 4.15699C69.8036 4.17582 69.6106 4.19935 69.4506 4.22759C69.2718 4.26523 69.1165 4.30288 68.9847 4.34053V11.1738ZM71.1448 12.0915C70.9566 12.1198 70.7683 12.1386 70.5801 12.148C70.4013 12.148 70.2177 12.148 70.0295 12.148C69.8789 12.148 69.7142 12.1433 69.5353 12.1339C69.3565 12.1245 69.173 12.1103 68.9847 12.0915V12.7833C68.9847 13.621 68.9941 14.3552 69.013 14.9858C69.0318 15.607 69.0553 16.1435 69.0835 16.5953C69.1212 17.0471 69.1635 17.4283 69.2106 17.7389C69.2577 18.0401 69.3141 18.2895 69.38 18.4872V18.5436H66.1187V18.4872C66.1846 18.2895 66.241 18.0354 66.2881 17.7248C66.3446 17.4142 66.3869 17.033 66.4152 16.5812C66.4528 16.12 66.4811 15.5741 66.4999 14.9434C66.5187 14.3128 66.5281 13.574 66.5281 12.7269V9.16902C66.5281 8.32192 66.5187 7.58776 66.4999 6.96655C66.4811 6.33593 66.4528 5.79473 66.4152 5.34294C66.3869 4.88174 66.3446 4.49584 66.2881 4.18523C66.241 3.87463 66.1846 3.6205 66.1187 3.42284V3.36636C66.2693 3.37578 66.4293 3.38519 66.5987 3.3946C66.7399 3.40401 66.8952 3.41343 67.0646 3.42284C67.2434 3.42284 67.4223 3.42284 67.6011 3.42284C67.9023 3.42284 68.3494 3.3946 68.9424 3.33813C69.5353 3.28165 70.2318 3.25342 71.0319 3.25342C71.8413 3.25342 72.5755 3.35225 73.2343 3.5499C73.9026 3.74756 74.4721 4.02993 74.9427 4.39701C75.4227 4.76408 75.7898 5.21117 76.0439 5.73825C76.3074 6.26534 76.4392 6.8536 76.4392 7.50305C76.4392 8.01131 76.3686 8.47722 76.2274 8.90077C76.0863 9.31491 75.8886 9.6914 75.6345 10.0302C75.3803 10.3597 75.0791 10.6514 74.7309 10.9056C74.3826 11.1597 73.9967 11.3809 73.5732 11.5691L76.5239 15.7341C76.7781 16.0729 77.0322 16.3976 77.2863 16.7082C77.5499 17.0188 77.7993 17.2965 78.0346 17.5412C78.2699 17.7859 78.4911 17.993 78.6982 18.1624C78.9052 18.3224 79.0794 18.4307 79.2205 18.4872V18.5436H75.5215C75.5215 18.4589 75.4603 18.313 75.338 18.106C75.225 17.8895 75.0886 17.6683 74.9286 17.4424C74.778 17.2071 74.6227 16.9812 74.4626 16.7647C74.3121 16.5482 74.1991 16.3882 74.1238 16.2847L71.1448 12.0915Z" fill="#1B3D3F"/>
<path d="M54.0333 3.36571C54.9557 3.36571 55.9016 3.36571 56.8711 3.36571C57.8405 3.3563 58.7394 3.34688 59.5677 3.33747C60.396 3.31865 61.1066 3.29982 61.6996 3.281C62.302 3.26217 62.6973 3.23394 62.8855 3.19629L62.3349 4.72107C62.0808 4.65519 61.7937 4.59401 61.4737 4.53754C61.1913 4.49047 60.8478 4.44812 60.443 4.41047C60.0477 4.36341 59.5865 4.33988 59.0594 4.33988C58.8712 4.33988 58.6547 4.34929 58.41 4.36811C58.1653 4.37753 57.93 4.39164 57.7041 4.41047C57.4405 4.42929 57.1723 4.44812 56.8993 4.46694V10.0437C57.6617 10.0343 58.3488 10.0155 58.9606 9.98723C59.5724 9.95899 60.0948 9.92134 60.5277 9.87428C61.036 9.83663 61.4831 9.78487 61.869 9.71898L61.5301 11.3991C61.0125 11.3332 60.4901 11.2767 59.963 11.2296C59.5112 11.1826 59.0124 11.1449 58.4665 11.1167C57.9205 11.0791 57.3982 11.0602 56.8993 11.0602V17.47C57.7747 17.47 58.5794 17.437 59.3136 17.3711C60.0477 17.2958 60.6878 17.2158 61.2337 17.1311C61.8737 17.0276 62.4525 16.9099 62.9702 16.7782L62.6455 18.6277C62.5043 18.6183 62.2737 18.6041 61.9537 18.5853C61.6431 18.5759 61.3137 18.5665 60.9654 18.5571C60.6266 18.5571 60.3066 18.5524 60.0054 18.543C59.7042 18.543 59.4971 18.543 59.3842 18.543H54.0333V18.4865C54.0992 18.2888 54.1556 18.0347 54.2027 17.7241C54.2592 17.4135 54.3015 17.0323 54.3298 16.5805C54.3674 16.1193 54.3957 15.5734 54.4145 14.9428C54.4333 14.3122 54.4427 13.5733 54.4427 12.7262V9.16836C54.4427 8.32126 54.4333 7.5871 54.4145 6.9659C54.3957 6.33527 54.3674 5.79407 54.3298 5.34228C54.3015 4.88108 54.2592 4.49518 54.2027 4.18458C54.1556 3.87397 54.0992 3.61984 54.0333 3.42218V3.36571Z" fill="#1B3D3F"/>
<path d="M47.454 11.2866C47.1622 11.2866 46.7998 11.2866 46.3668 11.2866C45.9339 11.2772 45.4633 11.2678 44.955 11.2584C44.4467 11.249 43.9196 11.2443 43.3737 11.2443C42.8278 11.2349 42.3007 11.2301 41.7925 11.2301C41.3125 11.2301 40.8607 11.2349 40.4371 11.2443C40.023 11.2537 39.6653 11.2678 39.3641 11.2866V12.7267C39.3641 13.5738 39.3735 14.3127 39.3924 14.9433C39.4112 15.5739 39.4347 16.1198 39.4629 16.581C39.5006 17.0328 39.5429 17.414 39.59 17.7246C39.6371 18.0352 39.6935 18.2893 39.7594 18.487V18.5435H36.4981V18.487C36.564 18.2893 36.6204 18.0352 36.6675 17.7246C36.724 17.414 36.7663 17.0328 36.7946 16.581C36.8322 16.1198 36.8605 15.5739 36.8793 14.9433C36.8981 14.3127 36.9075 13.5738 36.9075 12.7267V9.16887C36.9075 8.32176 36.8981 7.58761 36.8793 6.9664C36.8605 6.33578 36.8322 5.79457 36.7946 5.34278C36.7663 4.88158 36.724 4.49568 36.6675 4.18508C36.6204 3.87447 36.564 3.62034 36.4981 3.42268V3.36621H39.7594V3.42268C39.6935 3.62034 39.6371 3.87447 39.59 4.18508C39.5429 4.49568 39.5006 4.88158 39.4629 5.34278C39.4347 5.79457 39.4112 6.33578 39.3924 6.9664C39.3735 7.58761 39.3641 8.32176 39.3641 9.16887V10.1289H41.4395C41.9572 10.1289 42.5031 10.1289 43.0773 10.1289C43.6514 10.1195 44.2067 10.1148 44.7432 10.1148C45.2797 10.1054 45.7833 10.096 46.2539 10.0866C46.7245 10.0771 47.1245 10.063 47.454 10.0442V9.16887C47.454 8.32176 47.4445 7.58761 47.4257 6.9664C47.4069 6.33578 47.3787 5.79457 47.341 5.34278C47.3128 4.88158 47.2751 4.49568 47.2281 4.18508C47.181 3.87447 47.1245 3.62034 47.0586 3.42268V3.36621H50.32V3.42268C50.2541 3.62034 50.1929 3.87447 50.1364 4.18508C50.0894 4.49568 50.047 4.88158 50.0094 5.34278C49.9811 5.79457 49.9576 6.33578 49.9388 6.9664C49.92 7.58761 49.9106 8.32176 49.9106 9.16887V12.7267C49.9106 13.5738 49.92 14.3127 49.9388 14.9433C49.9576 15.5739 49.9811 16.1198 50.0094 16.581C50.047 17.0328 50.0894 17.414 50.1364 17.7246C50.1929 18.0352 50.2541 18.2893 50.32 18.487V18.5435H47.0586V18.487C47.1245 18.2893 47.181 18.0352 47.2281 17.7246C47.2751 17.414 47.3128 17.0328 47.341 16.581C47.3787 16.1198 47.4069 15.5739 47.4257 14.9433C47.4445 14.3127 47.454 13.5738 47.454 12.7267V11.2866Z" fill="#1B3D3F"/>
<path d="M170.318 18.114V16.6358H170.758C170.941 16.6358 171.076 16.6738 171.161 16.75C171.246 16.8239 171.288 16.9337 171.288 17.0792C171.288 17.1845 171.262 17.2685 171.208 17.3312C171.154 17.3917 171.094 17.4354 171.026 17.4622L171.416 18.114H171.117L170.791 17.5429H170.583V18.114H170.318ZM170.751 17.3245C170.838 17.3245 170.904 17.3021 170.949 17.2573C170.996 17.2125 171.02 17.1554 171.02 17.086C171.02 17.0076 170.998 16.9505 170.956 16.9146C170.916 16.8788 170.846 16.8609 170.748 16.8609H170.583V17.3245H170.751ZM170.788 18.6112C170.609 18.6112 170.444 18.581 170.294 18.5205C170.144 18.46 170.013 18.3749 169.901 18.2652C169.791 18.1532 169.706 18.0222 169.646 17.8721C169.585 17.722 169.555 17.5574 169.555 17.3782C169.555 17.2035 169.585 17.0423 169.646 16.8945C169.708 16.7444 169.795 16.6134 169.904 16.5014C170.016 16.3894 170.147 16.302 170.297 16.2393C170.447 16.1766 170.611 16.1453 170.788 16.1453C170.958 16.1453 171.117 16.1755 171.265 16.236C171.415 16.2964 171.546 16.3827 171.658 16.4947C171.772 16.6044 171.861 16.7343 171.923 16.8844C171.988 17.0344 172.021 17.1991 172.021 17.3782C172.021 17.5574 171.991 17.722 171.93 17.8721C171.87 18.0222 171.783 18.1532 171.671 18.2652C171.562 18.3749 171.432 18.46 171.282 18.5205C171.132 18.581 170.967 18.6112 170.788 18.6112ZM170.788 18.4096C170.929 18.4096 171.06 18.385 171.181 18.3357C171.304 18.2842 171.412 18.2125 171.503 18.1207C171.598 18.0267 171.67 17.9169 171.722 17.7915C171.776 17.6661 171.802 17.5283 171.802 17.3782C171.802 17.2349 171.777 17.1016 171.725 16.9784C171.676 16.853 171.605 16.7433 171.514 16.6492C171.422 16.5529 171.314 16.4779 171.191 16.4241C171.068 16.3704 170.933 16.3435 170.788 16.3435C170.64 16.3435 170.505 16.3692 170.381 16.4208C170.258 16.4723 170.151 16.5439 170.059 16.6358C169.967 16.7276 169.895 16.8373 169.844 16.965C169.792 17.0904 169.767 17.2282 169.767 17.3782C169.767 17.5261 169.791 17.6627 169.84 17.7881C169.892 17.9135 169.963 18.0233 170.052 18.1174C170.144 18.2092 170.251 18.2809 170.375 18.3324C170.5 18.3839 170.638 18.4096 170.788 18.4096Z" fill="#1B3D3F"/>
<path d="M37.4966 25.4502V28.9607H37.0313V25.4502H37.4966ZM41.0433 25.4502V28.9607H40.5756L38.8082 26.2531V28.9607H38.3429V25.4502H38.8082L40.5828 28.165V25.4502H41.0433ZM43.0927 25.4502V28.9607H42.6346V25.4502H43.0927ZM44.2211 25.4502V25.8311H41.5086V25.4502H44.2211ZM45.241 25.4502V28.9607H44.7756V25.4502H45.241ZM46.2343 25.4502H46.6852L47.8353 28.3121L48.983 25.4502H49.4363L48.0089 28.9607H47.6569L46.2343 25.4502ZM46.0873 25.4502H46.4851L46.5502 27.5912V28.9607H46.0873V25.4502ZM49.1831 25.4502H49.5809V28.9607H49.118V27.5912L49.1831 25.4502ZM51.7412 25.7612L50.5791 28.9607H50.1041L51.4423 25.4502H51.7485L51.7412 25.7612ZM52.7153 28.9607L51.5508 25.7612L51.5435 25.4502H51.8497L53.1927 28.9607H52.7153ZM52.655 27.6611V28.0421H50.6828V27.6611H52.655ZM54.6466 25.4502V28.9607H54.1885V25.4502H54.6466ZM55.775 25.4502V25.8311H53.0625V25.4502H55.775ZM58.526 28.5822V28.9607H56.6671V28.5822H58.526ZM56.7611 25.4502V28.9607H56.2958V25.4502H56.7611ZM58.2801 26.9595V27.338H56.6671V26.9595H58.2801ZM58.5019 25.4502V25.8311H56.6671V25.4502H58.5019ZM63.0275 25.4502V28.9607H62.5597L60.7924 26.2531V28.9607H60.3271V25.4502H60.7924L62.567 28.165V25.4502H63.0275ZM65.195 25.7612L64.0329 28.9607H63.5579L64.8961 25.4502H65.2023L65.195 25.7612ZM66.1691 28.9607L65.0045 25.7612L64.9973 25.4502H65.3035L66.6465 28.9607H66.1691ZM66.1088 27.6611V28.0421H64.1366V27.6611H66.1088ZM68.1004 25.4502V28.9607H67.6423V25.4502H68.1004ZM69.2287 25.4502V25.8311H66.5163V25.4502H69.2287ZM71.758 25.4502H72.2209V27.8251C72.2209 28.0887 72.1622 28.3081 72.0449 28.4833C71.9275 28.6585 71.7716 28.7903 71.5771 28.8787C71.3842 28.9655 71.1745 29.0089 70.9478 29.0089C70.7099 29.0089 70.4946 28.9655 70.3017 28.8787C70.1104 28.7903 69.9585 28.6585 69.846 28.4833C69.7351 28.3081 69.6796 28.0887 69.6796 27.8251V25.4502H70.1401V27.8251C70.1401 28.0083 70.1739 28.1594 70.2414 28.2784C70.3089 28.3973 70.4029 28.4857 70.5235 28.5436C70.6457 28.6014 70.7871 28.6304 70.9478 28.6304C71.1102 28.6304 71.2516 28.6014 71.3722 28.5436C71.4944 28.4857 71.5892 28.3973 71.6567 28.2784C71.7242 28.1594 71.758 28.0083 71.758 27.8251V25.4502ZM72.9514 25.4502H74.1136C74.3772 25.4502 74.5998 25.4904 74.7814 25.5707C74.9647 25.6511 75.1037 25.77 75.1986 25.9276C75.295 26.0835 75.3432 26.2756 75.3432 26.5038C75.3432 26.6645 75.3103 26.8116 75.2444 26.945C75.1801 27.0768 75.0868 27.1894 74.9647 27.2826C74.8441 27.3742 74.6995 27.4425 74.5307 27.4875L74.4005 27.5382H73.3083L73.3035 27.1596H74.128C74.2952 27.1596 74.4343 27.1307 74.5452 27.0728C74.6561 27.0134 74.7397 26.9338 74.7959 26.8341C74.8522 26.7345 74.8803 26.6244 74.8803 26.5038C74.8803 26.3688 74.8538 26.2506 74.8007 26.1494C74.7477 26.0481 74.6641 25.9702 74.55 25.9155C74.4375 25.8593 74.292 25.8311 74.1136 25.8311H73.4168V28.9607H72.9514V25.4502ZM75.0033 28.9607L74.1497 27.3694L74.6344 27.367L75.4999 28.9318V28.9607H75.0033ZM77.2938 25.7612L76.1316 28.9607H75.6567L76.9948 25.4502H77.301L77.2938 25.7612ZM78.2679 28.9607L77.1033 25.7612L77.0961 25.4502H77.4023L78.7453 28.9607H78.2679ZM78.2076 27.6611V28.0421H76.2353V27.6611H78.2076ZM81.3444 28.5822V28.9607H79.5891V28.5822H81.3444ZM79.6807 25.4502V28.9607H79.2154V25.4502H79.6807ZM84.0255 27.8998L84.7223 25.4502H85.0598L84.8646 26.4025L84.1147 28.9607H83.7796L84.0255 27.8998ZM83.3046 25.4502L83.8591 27.8516L84.0255 28.9607H83.6928L82.8417 25.4502H83.3046ZM85.9616 27.8492L86.5041 25.4502H86.9694L86.1207 28.9607H85.788L85.9616 27.8492ZM85.1105 25.4502L85.788 27.8998L86.0339 28.9607H85.6988L84.9755 26.4025L84.7778 25.4502H85.1105ZM89.7156 28.5822V28.9607H87.8567V28.5822H89.7156ZM87.9507 25.4502V28.9607H87.4854V25.4502H87.9507ZM89.4697 26.9595V27.338H87.8567V26.9595H89.4697ZM89.6915 25.4502V25.8311H87.8567V25.4502H89.6915ZM92.4209 28.5822V28.9607H90.6656V28.5822H92.4209ZM90.7572 25.4502V28.9607H90.2919V25.4502H90.7572ZM95.0827 28.5822V28.9607H93.3274V28.5822H95.0827ZM93.419 25.4502V28.9607H92.9537V25.4502H93.419ZM98.3159 25.4502V28.9607H97.8482L96.0809 26.2531V28.9607H95.6155V25.4502H96.0809L97.8554 28.165V25.4502H98.3159ZM101.371 28.5822V28.9607H99.5118V28.5822H101.371ZM99.6059 25.4502V28.9607H99.1405V25.4502H99.6059ZM101.125 26.9595V27.338H99.5118V26.9595H101.125ZM101.347 25.4502V25.8311H99.5118V25.4502H101.347ZM103.818 28.0734C103.818 27.9914 103.805 27.9191 103.779 27.8564C103.755 27.7921 103.712 27.7343 103.649 27.6828C103.588 27.6314 103.503 27.5824 103.394 27.5357C103.286 27.4891 103.149 27.4417 102.984 27.3935C102.81 27.3421 102.653 27.285 102.514 27.2223C102.374 27.158 102.254 27.0849 102.154 27.0029C102.055 26.9209 101.978 26.8269 101.925 26.7208C101.872 26.6147 101.846 26.4934 101.846 26.3567C101.846 26.2201 101.874 26.0939 101.93 25.9782C101.986 25.8625 102.067 25.762 102.171 25.6768C102.277 25.59 102.404 25.5225 102.55 25.4743C102.696 25.4261 102.859 25.402 103.039 25.402C103.303 25.402 103.526 25.4526 103.71 25.5538C103.894 25.6535 104.035 25.7845 104.131 25.9469C104.228 26.1076 104.276 26.2796 104.276 26.4628H103.813C103.813 26.331 103.785 26.2145 103.729 26.1132C103.673 26.0103 103.587 25.93 103.473 25.8721C103.359 25.8126 103.214 25.7829 103.039 25.7829C102.874 25.7829 102.737 25.8078 102.629 25.8576C102.522 25.9075 102.441 25.975 102.388 26.0602C102.337 26.1454 102.311 26.2426 102.311 26.3519C102.311 26.4259 102.326 26.4934 102.357 26.5544C102.389 26.6139 102.438 26.6694 102.504 26.7208C102.571 26.7722 102.657 26.8197 102.76 26.8631C102.864 26.9065 102.989 26.9483 103.133 26.9884C103.333 27.0447 103.505 27.1074 103.649 27.1765C103.794 27.2456 103.913 27.3236 104.006 27.4104C104.101 27.4956 104.171 27.5928 104.216 27.7021C104.262 27.8098 104.286 27.932 104.286 28.0686C104.286 28.2117 104.257 28.341 104.199 28.4568C104.141 28.5725 104.058 28.6714 103.951 28.7533C103.843 28.8353 103.714 28.8988 103.562 28.9438C103.413 28.9872 103.246 29.0089 103.061 29.0089C102.899 29.0089 102.739 28.9864 102.581 28.9414C102.425 28.8964 102.283 28.8289 102.154 28.7389C102.027 28.6489 101.925 28.538 101.848 28.4061C101.773 28.2727 101.735 28.1184 101.735 27.9432H102.198C102.198 28.0638 102.221 28.1675 102.268 28.2542C102.314 28.3394 102.378 28.4102 102.458 28.4664C102.54 28.5227 102.633 28.5645 102.735 28.5918C102.84 28.6175 102.948 28.6304 103.061 28.6304C103.223 28.6304 103.361 28.6079 103.473 28.5629C103.586 28.5179 103.671 28.4536 103.729 28.37C103.788 28.2864 103.818 28.1875 103.818 28.0734ZM106.75 28.0734C106.75 27.9914 106.737 27.9191 106.711 27.8564C106.687 27.7921 106.644 27.7343 106.581 27.6828C106.52 27.6314 106.435 27.5824 106.326 27.5357C106.218 27.4891 106.081 27.4417 105.916 27.3935C105.742 27.3421 105.585 27.285 105.445 27.2223C105.306 27.158 105.186 27.0849 105.086 27.0029C104.987 26.9209 104.91 26.8269 104.857 26.7208C104.804 26.6147 104.778 26.4934 104.778 26.3567C104.778 26.2201 104.806 26.0939 104.862 25.9782C104.918 25.8625 104.999 25.762 105.103 25.6768C105.209 25.59 105.335 25.5225 105.482 25.4743C105.628 25.4261 105.791 25.402 105.971 25.402C106.235 25.402 106.458 25.4526 106.641 25.5538C106.826 25.6535 106.967 25.7845 107.063 25.9469C107.16 26.1076 107.208 26.2796 107.208 26.4628H106.745C106.745 26.331 106.717 26.2145 106.661 26.1132C106.604 26.0103 106.519 25.93 106.405 25.8721C106.291 25.8126 106.146 25.7829 105.971 25.7829C105.806 25.7829 105.669 25.8078 105.561 25.8576C105.454 25.9075 105.373 25.975 105.32 26.0602C105.269 26.1454 105.243 26.2426 105.243 26.3519C105.243 26.4259 105.258 26.4934 105.289 26.5544C105.321 26.6139 105.37 26.6694 105.436 26.7208C105.503 26.7722 105.589 26.8197 105.691 26.8631C105.796 26.9065 105.92 26.9483 106.065 26.9884C106.264 27.0447 106.436 27.1074 106.581 27.1765C106.726 27.2456 106.845 27.3236 106.938 27.4104C107.033 27.4956 107.103 27.5928 107.148 27.7021C107.194 27.8098 107.218 27.932 107.218 28.0686C107.218 28.2117 107.189 28.341 107.131 28.4568C107.073 28.5725 106.99 28.6714 106.882 28.7533C106.775 28.8353 106.645 28.8988 106.494 28.9438C106.345 28.9872 106.178 29.0089 105.993 29.0089C105.83 29.0089 105.671 28.9864 105.513 28.9414C105.357 28.8964 105.215 28.8289 105.086 28.7389C104.959 28.6489 104.857 28.538 104.78 28.4061C104.704 28.2727 104.667 28.1184 104.667 27.9432H105.13C105.13 28.0638 105.153 28.1675 105.2 28.2542C105.246 28.3394 105.31 28.4102 105.39 28.4664C105.472 28.5227 105.564 28.5645 105.667 28.5918C105.772 28.6175 105.88 28.6304 105.993 28.6304C106.155 28.6304 106.293 28.6079 106.405 28.5629C106.518 28.5179 106.603 28.4536 106.661 28.37C106.72 28.2864 106.75 28.1875 106.75 28.0734Z" fill="#1B3D3F"/>
<defs>
<clipPath id="clip0_444_728">
<rect width="30.6731" height="21.927" fill="white" transform="translate(0.576599 0.0336914)"/>
</clipPath>
<clipPath id="clip1_444_728">
<rect width="30.6731" height="21.927" fill="white" transform="translate(0.547974 0.0332031)"/>
</clipPath>
</defs>
</svg>
