<svg width="184" height="24" viewBox="0 0 184 24" fill="none" xmlns="http://www.w3.org/2000/svg">
<g clip-path="url(#clip0_326_3069)">
<g clip-path="url(#clip1_326_3069)">
<path d="M32.7476 11.7303L31.8222 10.7917C30.6396 9.59211 29.2847 8.71238 27.8039 8.16811C28.8662 6.4742 29.5707 4.33821 29.9318 1.74902L30.1758 -0.000427246L28.4366 0.24394C22.1314 1.13144 18.525 4.10606 17.4749 9.30997C17.4119 9.34552 17.349 9.38106 17.286 9.41883C16.1619 10.0786 15.1052 10.9617 13.9104 11.7248C13.9137 11.727 13.9159 11.7281 13.9192 11.7303C13.9082 11.737 13.8982 11.7437 13.8872 11.7492C13.7558 11.8303 13.6244 11.908 13.4941 11.9814C13.461 12.0013 13.4267 12.0213 13.3925 12.0402C12.9 12.3179 12.4163 12.5534 11.9404 12.7444C11.9393 12.7444 11.9393 12.7444 11.9393 12.7444C11.671 12.8533 11.4038 12.9477 11.1398 13.0288C11.0924 13.0444 11.0449 13.0577 10.9963 13.071C10.072 13.3387 9.1743 13.4398 8.29312 13.3754C7.70566 13.332 7.12483 13.2143 6.54952 13.0232C5.71693 12.7467 4.89427 12.3157 4.07272 11.7303C4.92077 11.1261 5.76993 10.6862 6.63013 10.4118C7.25734 10.2108 7.88897 10.0975 8.53053 10.072C9.55968 10.0309 10.6131 10.2152 11.7041 10.6251C12.1026 10.7744 12.5512 10.758 12.9081 10.5265C13.5794 10.0911 14.2081 9.62089 14.8313 9.17779C14.8192 9.17002 14.8059 9.16224 14.7938 9.15558C13.3395 3.50291 9.76065 0.583833 3.9126 0.253937L2.43292 0.17063L2.51574 1.65905C2.66702 4.36153 3.36048 6.58194 4.61048 8.33472C3.41349 8.89011 2.23637 9.69096 1.0736 10.7362L-0.0317383 11.7303L1.0736 12.7245C2.26839 13.7997 3.48084 14.615 4.71097 15.1737C3.61777 16.8809 2.89339 19.0469 2.52678 21.6816L2.28275 23.4322L4.02192 23.1867C10.294 22.3048 13.8949 19.3579 14.966 14.2051C15.2829 14.0185 15.6021 13.8186 15.9223 13.6053C15.9333 13.5986 15.9444 13.5908 15.9543 13.5831C16.7935 12.9933 17.5996 12.3279 18.6067 11.7337C18.6056 11.7337 18.6034 11.7325 18.6023 11.7314H18.6012C18.6001 11.7314 18.6001 11.7303 18.599 11.7303C18.62 11.7181 18.6409 11.7059 18.6619 11.6948C19.3211 11.3127 20.0257 10.9894 20.7567 10.7417C21.7924 10.3885 22.8812 10.1853 23.9744 10.1808H23.9755C24.6292 10.1764 25.2829 10.2441 25.9278 10.3919H25.9289C26.9426 10.6251 27.9309 11.0572 28.854 11.7303C27.9232 12.4101 26.9249 12.8444 25.9013 13.0755H25.9002C25.2023 13.2332 24.4934 13.2965 23.7856 13.2776H23.7845C22.8139 13.2521 21.8488 13.0732 20.9223 12.7733C20.5131 12.641 20.0626 12.6655 19.6994 12.8959C18.9887 13.3467 18.3275 13.8412 17.6725 14.3073C19.1334 19.94 22.709 22.8479 28.546 23.1767L30.0256 23.2611L29.9428 21.7716C29.796 19.1424 29.1356 16.9687 27.9475 15.2392C29.373 14.6916 30.6771 13.8297 31.8222 12.6689L32.7476 11.7303ZM11.5197 7.76046C10.1074 7.37281 8.72598 7.28172 7.37218 7.48832C6.3088 6.35535 5.64294 4.90136 5.33486 3.08971C8.3141 3.60177 10.3216 5.10463 11.5197 7.76046ZM5.49498 20.201C5.90907 18.466 6.54069 17.0664 7.41193 15.9801C7.86799 16.0478 8.32624 16.0812 8.78892 16.0812C9.75292 16.0812 10.7324 15.9346 11.7262 15.6413C10.6529 17.9728 8.62439 19.4446 5.49498 20.201ZM24.9649 7.55053C24.4503 7.50943 23.9258 7.50276 23.3925 7.53275C22.4815 7.58274 21.5539 7.74269 20.6396 7.99927C21.6864 5.54671 23.7414 4.00831 26.9636 3.22967C26.5362 5.01799 25.8792 6.44976 24.9649 7.55053ZM20.8759 15.5269C21.714 15.7457 22.5599 15.8823 23.3925 15.929C23.9556 15.9601 24.5089 15.9512 25.0499 15.9046H25.051C26.1343 17.0431 26.8123 18.5104 27.1237 20.3409C24.0915 19.8211 22.0652 18.2727 20.8759 15.5269Z" fill="#FF7F50"/>
</g>
</g>
<path d="M176.789 13.5648C176.789 14.4701 176.799 15.2597 176.82 15.9336C176.84 16.6075 176.865 17.1909 176.895 17.6838C176.935 18.1666 176.98 18.574 177.031 18.9059C177.091 19.2379 177.157 19.5094 177.227 19.7207V19.781H173.727V19.7207C173.797 19.5094 173.857 19.2379 173.908 18.9059C173.968 18.574 174.013 18.1666 174.043 17.6838C174.084 17.1909 174.114 16.6075 174.134 15.9336C174.154 15.2597 174.164 14.4701 174.164 13.5648V12.5238L168.732 5.35704C168.37 4.87423 168.023 4.48697 167.691 4.19527C167.359 3.89352 167.108 3.7024 166.937 3.62194V3.56158H171.222C171.222 3.74264 171.287 4.02428 171.418 4.4065C171.549 4.77867 171.815 5.23633 172.218 5.7795L176.05 10.849L179.973 5.56827C180.255 5.18604 180.466 4.80885 180.607 4.43668C180.757 4.06451 180.833 3.77281 180.833 3.56158H183.594V3.62194C183.343 3.79293 183.081 4.00919 182.809 4.27071C182.548 4.53224 182.241 4.9044 181.889 5.38721L176.789 12.2974V13.5648Z" fill="white"/>
<path d="M166.227 17.9553C166.227 18.086 166.212 18.1967 166.182 18.2872C166.162 18.3777 166.107 18.4532 166.016 18.5135C165.302 19.0164 164.467 19.4188 163.512 19.7205C162.566 20.0122 161.455 20.1581 160.177 20.1581C158.739 20.1581 157.426 19.9519 156.239 19.5395C155.062 19.1271 154.052 18.5537 153.207 17.8195C152.362 17.0751 151.703 16.1849 151.23 15.1489C150.767 14.1129 150.536 12.9662 150.536 11.7089C150.536 10.6326 150.747 9.58653 151.17 8.57061C151.602 7.5547 152.221 6.65446 153.026 5.86989C153.83 5.08532 154.806 4.45666 155.953 3.98391C157.109 3.51116 158.412 3.27478 159.86 3.27478C160.615 3.27478 161.329 3.32005 162.003 3.41057C162.677 3.49104 163.326 3.6218 163.949 3.80286L165.081 6.51867L164.93 6.62428C164.326 5.93024 163.597 5.38205 162.742 4.97971C161.887 4.56731 160.907 4.36111 159.8 4.36111C158.895 4.36111 158.06 4.50696 157.295 4.79865C156.541 5.09035 155.882 5.51784 155.319 6.08112C154.766 6.63434 154.333 7.31832 154.021 8.13307C153.71 8.94781 153.554 9.8732 153.554 10.9092C153.554 12.076 153.7 13.1573 153.991 14.1531C154.283 15.1489 154.721 16.0139 155.304 16.7482C155.887 17.4724 156.606 18.0408 157.461 18.4532C158.326 18.8656 159.332 19.0718 160.479 19.0718C161.465 19.0718 162.229 18.946 162.772 18.6946C163.326 18.4431 163.602 18.1564 163.602 17.8345V17.0349C163.602 16.5118 163.597 16.0592 163.587 15.677C163.577 15.2948 163.562 14.9679 163.542 14.6963C163.522 14.4146 163.492 14.1732 163.451 13.9721C163.421 13.7709 163.381 13.5848 163.331 13.4138V13.3535H166.544V13.4138C166.494 13.5647 166.449 13.7457 166.409 13.957C166.368 14.1682 166.333 14.4197 166.303 14.7114C166.283 15.0031 166.263 15.3451 166.243 15.7373C166.233 16.1296 166.227 16.5823 166.227 17.0952V17.9553Z" fill="white"/>
<path d="M131.043 11.6184C131.043 10.4314 131.265 9.33004 131.707 8.31412C132.16 7.29821 132.774 6.41808 133.548 5.67375C134.323 4.91936 135.238 4.33093 136.294 3.90847C137.35 3.48601 138.482 3.27478 139.689 3.27478C140.876 3.27478 141.992 3.47595 143.038 3.87829C144.094 4.27058 145.01 4.83386 145.784 5.56813C146.569 6.30241 147.187 7.19259 147.64 8.23868C148.093 9.28477 148.319 10.4566 148.319 11.7542C148.319 12.8304 148.128 13.8715 147.746 14.8773C147.363 15.8731 146.805 16.7583 146.071 17.5328C145.337 18.2972 144.431 18.9108 143.355 19.3735C142.279 19.8261 141.047 20.0525 139.659 20.0525C138.482 20.0525 137.37 19.8563 136.324 19.464C135.278 19.0718 134.363 18.5135 133.578 17.7893C132.794 17.055 132.175 16.1699 131.722 15.1338C131.27 14.0877 131.043 12.9159 131.043 11.6184ZM140.036 18.9812C140.8 18.9812 141.504 18.8303 142.148 18.5286C142.792 18.2268 143.345 17.7943 143.808 17.231C144.281 16.6678 144.643 15.9838 144.894 15.1791C145.156 14.3643 145.286 13.449 145.286 12.4331C145.286 11.2764 145.161 10.2051 144.909 9.21939C144.668 8.23365 144.296 7.3837 143.793 6.66955C143.3 5.94533 142.681 5.38205 141.937 4.97971C141.193 4.56731 140.322 4.36111 139.327 4.36111C138.562 4.36111 137.858 4.50696 137.214 4.79865C136.571 5.09035 136.012 5.51281 135.54 6.06603C135.077 6.61925 134.715 7.29821 134.453 8.10289C134.192 8.90758 134.061 9.82291 134.061 10.8489C134.061 11.9956 134.187 13.0668 134.438 14.0626C134.7 15.0483 135.077 15.9083 135.57 16.6426C136.073 17.3668 136.696 17.9402 137.441 18.3626C138.185 18.775 139.05 18.9812 140.036 18.9812Z" fill="white"/>
<path d="M122.744 18.6042C123.68 18.6042 124.54 18.569 125.324 18.4986C126.119 18.4181 126.813 18.3326 127.407 18.2421C128.101 18.1314 128.729 18.0057 129.293 17.8649L128.946 19.8715C128.805 19.8615 128.563 19.8464 128.221 19.8263C127.889 19.8162 127.537 19.8062 127.165 19.7961C126.793 19.7961 126.446 19.7911 126.124 19.781C125.802 19.781 125.581 19.781 125.46 19.781H119.682V19.7207C119.752 19.5094 119.812 19.2379 119.863 18.9059C119.923 18.574 119.968 18.1666 119.998 17.6838C120.039 17.1909 120.069 16.6075 120.089 15.9336C120.109 15.2597 120.119 14.4701 120.119 13.5648V9.76269C120.119 8.85742 120.109 8.07285 120.089 7.40898C120.069 6.73506 120.039 6.15669 119.998 5.67388C119.968 5.18101 119.923 4.76861 119.863 4.43668C119.812 4.10475 119.752 3.83317 119.682 3.62194V3.56158H123.167V3.62194C123.097 3.83317 123.036 4.10475 122.986 4.43668C122.936 4.76861 122.89 5.18101 122.85 5.67388C122.82 6.15669 122.795 6.73506 122.775 7.40898C122.755 8.07285 122.744 8.85742 122.744 9.76269V18.6042Z" fill="white"/>
<path d="M99.3281 11.6184C99.3281 10.4314 99.5494 9.33004 99.992 8.31412C100.445 7.29821 101.058 6.41808 101.833 5.67375C102.607 4.91936 103.523 4.33093 104.579 3.90847C105.635 3.48601 106.766 3.27478 107.973 3.27478C109.16 3.27478 110.277 3.47595 111.323 3.87829C112.379 4.27058 113.294 4.83386 114.069 5.56813C114.854 6.30241 115.472 7.19259 115.925 8.23868C116.377 9.28477 116.604 10.4566 116.604 11.7542C116.604 12.8304 116.413 13.8715 116.03 14.8773C115.648 15.8731 115.09 16.7583 114.356 17.5328C113.621 18.2972 112.716 18.9108 111.64 19.3735C110.564 19.8261 109.331 20.0525 107.943 20.0525C106.766 20.0525 105.655 19.8563 104.609 19.464C103.563 19.0718 102.647 18.5135 101.863 17.7893C101.078 17.055 100.46 16.1699 100.007 15.1338C99.5544 14.0877 99.3281 12.9159 99.3281 11.6184ZM108.32 18.9812C109.085 18.9812 109.789 18.8303 110.433 18.5286C111.077 18.2268 111.63 17.7943 112.092 17.231C112.565 16.6678 112.927 15.9838 113.179 15.1791C113.44 14.3643 113.571 13.449 113.571 12.4331C113.571 11.2764 113.445 10.2051 113.194 9.21939C112.952 8.23365 112.58 7.3837 112.077 6.66955C111.584 5.94533 110.966 5.38205 110.222 4.97971C109.477 4.56731 108.607 4.36111 107.611 4.36111C106.847 4.36111 106.143 4.50696 105.499 4.79865C104.855 5.09035 104.297 5.51281 103.824 6.06603C103.362 6.61925 103 7.29821 102.738 8.10289C102.476 8.90758 102.346 9.82291 102.346 10.8489C102.346 11.9956 102.471 13.0668 102.723 14.0626C102.984 15.0483 103.362 15.9083 103.854 16.6426C104.357 17.3668 104.981 17.9402 105.725 18.3626C106.47 18.775 107.335 18.9812 108.32 18.9812Z" fill="white"/>
<path d="M90.5324 11.8447C90.0496 11.8447 89.6372 11.8648 89.2952 11.9051C88.9633 11.9353 88.7068 11.9654 88.5257 11.9956V13.5647C88.5257 14.4298 88.5257 15.154 88.5257 15.7374C88.5358 16.3208 88.5458 16.8086 88.5559 17.2009C88.576 17.5932 88.5911 17.91 88.6012 18.1514C88.6112 18.3828 88.6263 18.584 88.6464 18.755C88.9079 18.8254 89.1846 18.8706 89.4763 18.8907C89.778 18.9109 90.0144 18.9209 90.1854 18.9209C91.5735 18.9209 92.5793 18.6192 93.203 18.0157C93.8366 17.4021 94.1535 16.4566 94.1535 15.1791C94.1535 14.6963 94.0781 14.2487 93.9272 13.8363C93.7763 13.4239 93.55 13.0719 93.2482 12.7802C92.9465 12.4885 92.5693 12.2622 92.1166 12.1012C91.664 11.9302 91.1359 11.8447 90.5324 11.8447ZM88.5257 10.8188C88.7269 10.8489 88.9079 10.869 89.0689 10.8791C89.2298 10.8791 89.3958 10.8791 89.5668 10.8791C90.5827 10.8791 91.3874 10.5975 91.9808 10.0342C92.5844 9.4709 92.8861 8.63101 92.8861 7.51451C92.8861 7.06188 92.8258 6.64445 92.7051 6.26222C92.5844 5.88 92.4083 5.55309 92.177 5.28151C91.9557 5.00993 91.6741 4.7987 91.3321 4.64782C91.0001 4.49694 90.6179 4.42151 90.1854 4.42151C89.8937 4.42151 89.6473 4.43659 89.4461 4.46677C89.2449 4.48689 89.0739 4.507 88.9331 4.52712C88.7722 4.56735 88.6364 4.60256 88.5257 4.63273V10.8188ZM85.4629 3.53132C85.654 3.54138 85.8501 3.54641 86.0513 3.54641C86.2223 3.55647 86.4084 3.5615 86.6096 3.5615C86.8107 3.5615 87.0069 3.5615 87.198 3.5615C87.5098 3.5615 87.9423 3.54138 88.4955 3.50115C89.0488 3.46091 89.7378 3.4408 90.5626 3.4408C91.2969 3.4408 91.9758 3.53132 92.5994 3.71238C93.2331 3.88337 93.7763 4.13484 94.2289 4.46677C94.6916 4.7987 95.0487 5.20607 95.3002 5.68888C95.5617 6.1717 95.6925 6.71989 95.6925 7.33346C95.6925 7.8565 95.617 8.32423 95.4661 8.73663C95.3253 9.13897 95.1191 9.49605 94.8475 9.80787C94.5759 10.1096 94.249 10.3661 93.8668 10.5773C93.4846 10.7785 93.0621 10.9395 92.5994 11.0602C93.2734 11.1607 93.8869 11.3267 94.4402 11.5581C94.9934 11.7894 95.4661 12.0811 95.8584 12.4332C96.2507 12.7751 96.5525 13.1825 96.7637 13.6553C96.9749 14.118 97.0805 14.636 97.0805 15.2093C97.0805 16.7986 96.5122 17.9905 95.3756 18.7851C94.239 19.5697 92.5441 19.962 90.291 19.962C90.0496 19.962 89.7478 19.9519 89.3857 19.9318C89.0337 19.9117 88.6615 19.8916 88.2692 19.8715C87.887 19.8513 87.5148 19.8312 87.1527 19.8111C86.8007 19.791 86.504 19.7809 86.2625 19.7809H85.4629V19.7206C85.5333 19.5093 85.5937 19.2378 85.6439 18.9058C85.7043 18.5739 85.7496 18.1665 85.7797 17.6837C85.82 17.1909 85.8501 16.6075 85.8703 15.9335C85.8904 15.2596 85.9004 14.47 85.9004 13.5647V9.7626C85.9004 8.85733 85.8904 8.06773 85.8703 7.39381C85.8501 6.71989 85.82 6.13649 85.7797 5.64362C85.7496 5.15075 85.7043 4.73835 85.6439 4.40642C85.5937 4.07448 85.5333 3.8029 85.4629 3.59167V3.53132Z" fill="white"/>
<path d="M73.1058 11.9051C73.307 11.9353 73.5081 11.9604 73.7093 11.9805C73.9205 11.9906 74.1217 11.9956 74.3128 11.9956C75.5701 11.9956 76.5207 11.6586 77.1644 10.9847C77.8182 10.3108 78.1451 9.29991 78.1451 7.95206C78.1451 6.84562 77.8836 5.97052 77.3606 5.32678C76.8476 4.68303 76.0882 4.36115 75.0823 4.36115C74.7604 4.36115 74.4738 4.37624 74.2223 4.40642C73.9809 4.42653 73.7747 4.45168 73.6037 4.48186C73.4126 4.52209 73.2466 4.56232 73.1058 4.60256V11.9051ZM75.4142 12.8858C75.2131 12.916 75.0119 12.9361 74.8107 12.9461C74.6196 12.9461 74.4235 12.9461 74.2223 12.9461C74.0614 12.9461 73.8853 12.9411 73.6942 12.931C73.5031 12.921 73.307 12.9059 73.1058 12.8858V13.6251C73.1058 14.5203 73.1159 15.3049 73.136 15.9788C73.1561 16.6427 73.1812 17.216 73.2114 17.6988C73.2516 18.1816 73.2969 18.589 73.3472 18.9209C73.3975 19.2428 73.4579 19.5094 73.5283 19.7206V19.7809H70.043V19.7206C70.1134 19.5094 70.1737 19.2378 70.224 18.9058C70.2844 18.5739 70.3296 18.1665 70.3598 17.6837C70.4 17.1909 70.4302 16.6075 70.4503 15.9335C70.4705 15.2596 70.4805 14.47 70.4805 13.5647V9.7626C70.4805 8.85733 70.4705 8.07276 70.4503 7.4089C70.4302 6.73497 70.4 6.15661 70.3598 5.6738C70.3296 5.18093 70.2844 4.76853 70.224 4.43659C70.1737 4.10466 70.1134 3.83308 70.043 3.62185V3.5615C70.2039 3.57156 70.3749 3.58162 70.556 3.59167C70.7068 3.60173 70.8728 3.61179 71.0539 3.62185C71.245 3.62185 71.4361 3.62185 71.6272 3.62185C71.9491 3.62185 72.4268 3.59167 73.0605 3.53132C73.6942 3.47097 74.4386 3.4408 75.2935 3.4408C76.1586 3.4408 76.9431 3.54641 77.6472 3.75764C78.3614 3.96887 78.9699 4.27063 79.4729 4.66291C79.9859 5.05519 80.3781 5.53298 80.6497 6.09626C80.9314 6.65954 81.0722 7.2882 81.0722 7.98224C81.0722 8.5254 80.9967 9.0233 80.8459 9.47593C80.695 9.91851 80.4838 10.3209 80.2122 10.683C79.9406 11.035 79.6187 11.3468 79.2466 11.6184C78.8744 11.89 78.462 12.1264 78.0094 12.3275L81.1627 16.7785C81.4343 17.1406 81.7059 17.4876 81.9775 17.8195C82.2591 18.1514 82.5256 18.4482 82.7771 18.7097C83.0286 18.9712 83.2649 19.1925 83.4862 19.3736C83.7075 19.5446 83.8936 19.6602 84.0445 19.7206V19.7809H80.0915C80.0915 19.6904 80.0261 19.5345 79.8953 19.3132C79.7746 19.0819 79.6288 18.8455 79.4578 18.6041C79.2968 18.3526 79.1309 18.1112 78.9599 17.8799C78.7989 17.6485 78.6782 17.4775 78.5978 17.3669L75.4142 12.8858Z" fill="white"/>
<path d="M57.1274 3.56094C58.1132 3.56094 59.1241 3.56094 60.1601 3.56094C61.1961 3.55088 62.1567 3.54082 63.0419 3.53076C63.927 3.51064 64.6865 3.49053 65.3201 3.47041C65.9639 3.45029 66.3863 3.42012 66.5875 3.37988L65.9991 5.00937C65.7275 4.93896 65.4207 4.87358 65.0787 4.81323C64.777 4.76293 64.4098 4.71767 63.9773 4.67744C63.5549 4.62714 63.062 4.602 62.4987 4.602C62.2975 4.602 62.0662 4.61206 61.8047 4.63217C61.5431 4.64223 61.2917 4.65732 61.0503 4.67744C60.7686 4.69755 60.482 4.71767 60.1903 4.73779V10.6975C61.005 10.6874 61.7393 10.6673 62.3931 10.6371C63.0469 10.607 63.6052 10.5667 64.0678 10.5164C64.611 10.4762 65.0888 10.4209 65.5012 10.3505L65.1391 12.1459C64.5859 12.0755 64.0276 12.0152 63.4643 11.9649C62.9815 11.9146 62.4484 11.8743 61.865 11.8442C61.2816 11.8039 60.7234 11.7838 60.1903 11.7838V18.6337C61.1257 18.6337 61.9857 18.5985 62.7703 18.5281C63.5549 18.4476 64.2388 18.3621 64.8222 18.2716C65.5062 18.1609 66.1248 18.0352 66.678 17.8944L66.331 19.8709C66.1801 19.8608 65.9337 19.8457 65.5917 19.8256C65.2598 19.8156 64.9077 19.8055 64.5356 19.7955C64.1735 19.7955 63.8315 19.7904 63.5096 19.7804C63.1877 19.7804 62.9664 19.7804 62.8457 19.7804H57.1274V19.72C57.1979 19.5088 57.2582 19.2372 57.3085 18.9053C57.3688 18.5733 57.4141 18.166 57.4443 17.6832C57.4845 17.1903 57.5147 16.6069 57.5348 15.933C57.5549 15.259 57.565 14.4694 57.565 13.5642V9.76204C57.565 8.85677 57.5549 8.0722 57.5348 7.40834C57.5147 6.73441 57.4845 6.15605 57.4443 5.67323C57.4141 5.18036 57.3688 4.76796 57.3085 4.43603C57.2582 4.1041 57.1979 3.83252 57.1274 3.62129V3.56094Z" fill="white"/>
<path d="M50.0964 12.0259C49.7845 12.0259 49.3973 12.0259 48.9346 12.0259C48.4719 12.0158 47.969 12.0057 47.4258 11.9957C46.8826 11.9856 46.3194 11.9806 45.736 11.9806C45.1526 11.9705 44.5893 11.9655 44.0461 11.9655C43.5331 11.9655 43.0503 11.9705 42.5977 11.9806C42.1551 11.9907 41.7729 12.0057 41.451 12.0259V13.5648C41.451 14.4701 41.4611 15.2597 41.4812 15.9336C41.5013 16.6075 41.5265 17.1909 41.5566 17.6838C41.5969 18.1666 41.6421 18.574 41.6924 18.9059C41.7427 19.2379 41.8031 19.5094 41.8735 19.7207V19.781H38.3882V19.7207C38.4586 19.5094 38.5189 19.2379 38.5692 18.9059C38.6296 18.574 38.6749 18.1666 38.705 17.6838C38.7453 17.1909 38.7754 16.6075 38.7956 15.9336C38.8157 15.2597 38.8257 14.4701 38.8257 13.5648V9.76269C38.8257 8.85742 38.8157 8.07285 38.7956 7.40898C38.7754 6.73506 38.7453 6.15669 38.705 5.67388C38.6749 5.18101 38.6296 4.76861 38.5692 4.43668C38.5189 4.10475 38.4586 3.83317 38.3882 3.62194V3.56158H41.8735V3.62194C41.8031 3.83317 41.7427 4.10475 41.6924 4.43668C41.6421 4.76861 41.5969 5.18101 41.5566 5.67388C41.5265 6.15669 41.5013 6.73506 41.4812 7.40898C41.4611 8.07285 41.451 8.85742 41.451 9.76269V10.7887H43.6689C44.2222 10.7887 44.8055 10.7887 45.4191 10.7887C46.0327 10.7786 46.6261 10.7736 47.1995 10.7736C47.7728 10.7635 48.311 10.7535 48.8139 10.7434C49.3168 10.7333 49.7443 10.7183 50.0964 10.6981V9.76269C50.0964 8.85742 50.0863 8.07285 50.0662 7.40898C50.0461 6.73506 50.0159 6.15669 49.9756 5.67388C49.9455 5.18101 49.9052 4.76861 49.8549 4.43668C49.8047 4.10475 49.7443 3.83317 49.6739 3.62194V3.56158H53.1592V3.62194C53.0888 3.83317 53.0234 4.10475 52.963 4.43668C52.9128 4.76861 52.8675 5.18101 52.8273 5.67388C52.7971 6.15669 52.7719 6.73506 52.7518 7.40898C52.7317 8.07285 52.7216 8.85742 52.7216 9.76269V13.5648C52.7216 14.4701 52.7317 15.2597 52.7518 15.9336C52.7719 16.6075 52.7971 17.1909 52.8273 17.6838C52.8675 18.1666 52.9128 18.574 52.963 18.9059C53.0234 19.2379 53.0888 19.5094 53.1592 19.7207V19.781H49.6739V19.7207C49.7443 19.5094 49.8047 19.2379 49.8549 18.9059C49.9052 18.574 49.9455 18.1666 49.9756 17.6838C50.0159 17.1909 50.0461 16.6075 50.0662 15.9336C50.0863 15.2597 50.0964 14.4701 50.0964 13.5648V12.0259Z" fill="white"/>
<path d="M181.397 19.3221V17.7423H181.867C182.063 17.7423 182.207 17.783 182.298 17.8644C182.389 17.9434 182.434 18.0607 182.434 18.2162C182.434 18.3287 182.405 18.4185 182.348 18.4855C182.291 18.5501 182.226 18.5968 182.154 18.6255L182.571 19.3221H182.251L181.903 18.7117H181.68V19.3221H181.397ZM181.86 18.4783C181.953 18.4783 182.024 18.4544 182.072 18.4065C182.122 18.3587 182.147 18.2976 182.147 18.2234C182.147 18.1397 182.124 18.0786 182.079 18.0403C182.036 18.002 181.961 17.9829 181.856 17.9829H181.68V18.4783H181.86ZM181.899 19.8534C181.708 19.8534 181.532 19.8211 181.371 19.7565C181.211 19.6919 181.071 19.6009 180.951 19.4836C180.834 19.364 180.743 19.2239 180.678 19.0636C180.614 18.9032 180.582 18.7273 180.582 18.5358C180.582 18.3491 180.614 18.1768 180.678 18.0188C180.746 17.8584 180.838 17.7184 180.955 17.5987C181.075 17.479 181.215 17.3857 181.375 17.3187C181.535 17.2516 181.71 17.2181 181.899 17.2181C182.081 17.2181 182.251 17.2505 182.409 17.3151C182.569 17.3797 182.709 17.4719 182.829 17.5915C182.951 17.7088 183.046 17.8476 183.113 18.008C183.182 18.1684 183.217 18.3443 183.217 18.5358C183.217 18.7273 183.185 18.9032 183.12 19.0636C183.055 19.2239 182.963 19.364 182.843 19.4836C182.726 19.6009 182.587 19.6919 182.427 19.7565C182.267 19.8211 182.091 19.8534 181.899 19.8534ZM181.899 19.638C182.05 19.638 182.19 19.6117 182.319 19.559C182.451 19.504 182.566 19.4274 182.664 19.3292C182.764 19.2287 182.842 19.1114 182.897 18.9774C182.955 18.8434 182.983 18.6962 182.983 18.5358C182.983 18.3826 182.956 18.2402 182.901 18.1085C182.848 17.9745 182.773 17.8572 182.675 17.7567C182.577 17.6538 182.462 17.5736 182.33 17.5161C182.198 17.4587 182.055 17.43 181.899 17.43C181.741 17.43 181.596 17.4575 181.465 17.5125C181.333 17.5676 181.218 17.6442 181.12 17.7423C181.022 17.8405 180.945 17.9577 180.89 18.0942C180.835 18.2282 180.808 18.3754 180.808 18.5358C180.808 18.6938 180.834 18.8398 180.887 18.9738C180.942 19.1078 181.017 19.2251 181.113 19.3257C181.211 19.4238 181.326 19.5004 181.458 19.5554C181.592 19.6105 181.739 19.638 181.899 19.638Z" fill="white"/>
<defs>
<clipPath id="clip0_326_3069">
<rect width="32.7793" height="23.4326" fill="white" transform="translate(0 0.000366211)"/>
</clipPath>
<clipPath id="clip1_326_3069">
<rect width="32.7793" height="23.4326" fill="white" transform="translate(-0.0302734 -0.000793457)"/>
</clipPath>
</defs>
</svg>
